<mxfile host="app.diagrams.net" agent="Mozilla/5.0 (Windows NT 10.0; Win64; x64) AppleWebKit/537.36 (KHTML, like Gecko) Chrome/136.0.0.0 Safari/537.36" version="27.0.6">
  <diagram name="Page-1" id="7F6oa7Sf9m-oPaY8IiI6">
    <mxGraphModel grid="0" page="0" gridSize="10" guides="1" tooltips="1" connect="1" arrows="1" fold="1" pageScale="1" pageWidth="850" pageHeight="1100" math="0" shadow="0">
      <root>
        <mxCell id="0" />
        <mxCell id="1" parent="0" />
        <mxCell id="ztK6fYnErQ94AF5k2fzQ-48" value="" style="group" connectable="0" vertex="1" parent="1">
          <mxGeometry x="12" y="-155" width="841" height="86" as="geometry" />
        </mxCell>
        <mxCell id="ztK6fYnErQ94AF5k2fzQ-8" value="&lt;u&gt;Review_ID&lt;/u&gt;" style="rounded=0;whiteSpace=wrap;html=1;" vertex="1" parent="ztK6fYnErQ94AF5k2fzQ-48">
          <mxGeometry x="3" y="26" width="120" height="60" as="geometry" />
        </mxCell>
        <mxCell id="ztK6fYnErQ94AF5k2fzQ-9" value="Rating" style="rounded=0;whiteSpace=wrap;html=1;" vertex="1" parent="ztK6fYnErQ94AF5k2fzQ-48">
          <mxGeometry x="123" y="26" width="120" height="60" as="geometry" />
        </mxCell>
        <mxCell id="ztK6fYnErQ94AF5k2fzQ-10" value="Retailer_ID" style="rounded=0;whiteSpace=wrap;html=1;" vertex="1" parent="ztK6fYnErQ94AF5k2fzQ-48">
          <mxGeometry x="243" y="26" width="120" height="60" as="geometry" />
        </mxCell>
        <mxCell id="ztK6fYnErQ94AF5k2fzQ-11" value="Product_ID" style="rounded=0;whiteSpace=wrap;html=1;" vertex="1" parent="ztK6fYnErQ94AF5k2fzQ-48">
          <mxGeometry x="363" y="26" width="120" height="60" as="geometry" />
        </mxCell>
        <mxCell id="ztK6fYnErQ94AF5k2fzQ-12" value="Comment" style="rounded=0;whiteSpace=wrap;html=1;" vertex="1" parent="ztK6fYnErQ94AF5k2fzQ-48">
          <mxGeometry x="483" y="26" width="120" height="60" as="geometry" />
        </mxCell>
        <mxCell id="ztK6fYnErQ94AF5k2fzQ-13" value="User_ID" style="rounded=0;whiteSpace=wrap;html=1;" vertex="1" parent="ztK6fYnErQ94AF5k2fzQ-48">
          <mxGeometry x="603" y="26" width="120" height="60" as="geometry" />
        </mxCell>
        <mxCell id="ztK6fYnErQ94AF5k2fzQ-14" value="Review_Date" style="rounded=0;whiteSpace=wrap;html=1;" vertex="1" parent="ztK6fYnErQ94AF5k2fzQ-48">
          <mxGeometry x="721" y="26" width="120" height="60" as="geometry" />
        </mxCell>
        <mxCell id="ztK6fYnErQ94AF5k2fzQ-41" value="&lt;span style=&quot;font-size: 17px;&quot;&gt;&lt;b&gt;Review&lt;/b&gt;&lt;/span&gt;" style="text;html=1;align=left;verticalAlign=middle;whiteSpace=wrap;rounded=0;" vertex="1" parent="ztK6fYnErQ94AF5k2fzQ-48">
          <mxGeometry width="110" height="21" as="geometry" />
        </mxCell>
        <mxCell id="ztK6fYnErQ94AF5k2fzQ-49" value="" style="group" connectable="0" vertex="1" parent="1">
          <mxGeometry x="15" y="-44" width="480" height="85" as="geometry" />
        </mxCell>
        <mxCell id="ztK6fYnErQ94AF5k2fzQ-16" value="&lt;u&gt;Retailer_ID&lt;/u&gt;" style="rounded=0;whiteSpace=wrap;html=1;" vertex="1" parent="ztK6fYnErQ94AF5k2fzQ-49">
          <mxGeometry y="25" width="120" height="60" as="geometry" />
        </mxCell>
        <mxCell id="ztK6fYnErQ94AF5k2fzQ-17" value="Name" style="rounded=0;whiteSpace=wrap;html=1;" vertex="1" parent="ztK6fYnErQ94AF5k2fzQ-49">
          <mxGeometry x="120" y="25" width="120" height="60" as="geometry" />
        </mxCell>
        <mxCell id="ztK6fYnErQ94AF5k2fzQ-18" value="Website" style="rounded=0;whiteSpace=wrap;html=1;" vertex="1" parent="ztK6fYnErQ94AF5k2fzQ-49">
          <mxGeometry x="240" y="25" width="120" height="60" as="geometry" />
        </mxCell>
        <mxCell id="ztK6fYnErQ94AF5k2fzQ-19" value="Logo_URL" style="rounded=0;whiteSpace=wrap;html=1;" vertex="1" parent="ztK6fYnErQ94AF5k2fzQ-49">
          <mxGeometry x="360" y="25" width="120" height="60" as="geometry" />
        </mxCell>
        <mxCell id="ztK6fYnErQ94AF5k2fzQ-42" value="&lt;span style=&quot;font-size: 17px;&quot;&gt;&lt;b&gt;Retailer&lt;/b&gt;&lt;/span&gt;" style="text;html=1;align=left;verticalAlign=middle;whiteSpace=wrap;rounded=0;" vertex="1" parent="ztK6fYnErQ94AF5k2fzQ-49">
          <mxGeometry x="-7" width="110" height="21" as="geometry" />
        </mxCell>
        <mxCell id="ztK6fYnErQ94AF5k2fzQ-50" value="" style="group" connectable="0" vertex="1" parent="1">
          <mxGeometry x="15" y="70" width="838" height="85" as="geometry" />
        </mxCell>
        <mxCell id="ztK6fYnErQ94AF5k2fzQ-22" value="&lt;u&gt;Product_ID&lt;/u&gt;" style="rounded=0;whiteSpace=wrap;html=1;" vertex="1" parent="ztK6fYnErQ94AF5k2fzQ-50">
          <mxGeometry y="25" width="120" height="60" as="geometry" />
        </mxCell>
        <mxCell id="ztK6fYnErQ94AF5k2fzQ-23" value="Brand_ID" style="rounded=0;whiteSpace=wrap;html=1;" vertex="1" parent="ztK6fYnErQ94AF5k2fzQ-50">
          <mxGeometry x="120" y="25" width="120" height="60" as="geometry" />
        </mxCell>
        <mxCell id="ztK6fYnErQ94AF5k2fzQ-24" value="Category_ID" style="rounded=0;whiteSpace=wrap;html=1;" vertex="1" parent="ztK6fYnErQ94AF5k2fzQ-50">
          <mxGeometry x="240" y="25" width="120" height="60" as="geometry" />
        </mxCell>
        <mxCell id="ztK6fYnErQ94AF5k2fzQ-25" value="Name" style="rounded=0;whiteSpace=wrap;html=1;" vertex="1" parent="ztK6fYnErQ94AF5k2fzQ-50">
          <mxGeometry x="360" y="25" width="120" height="60" as="geometry" />
        </mxCell>
        <mxCell id="ztK6fYnErQ94AF5k2fzQ-26" value="Description" style="rounded=0;whiteSpace=wrap;html=1;" vertex="1" parent="ztK6fYnErQ94AF5k2fzQ-50">
          <mxGeometry x="480" y="25" width="120" height="60" as="geometry" />
        </mxCell>
        <mxCell id="ztK6fYnErQ94AF5k2fzQ-27" value="Specifications" style="rounded=0;whiteSpace=wrap;html=1;" vertex="1" parent="ztK6fYnErQ94AF5k2fzQ-50">
          <mxGeometry x="600" y="25" width="120" height="60" as="geometry" />
        </mxCell>
        <mxCell id="ztK6fYnErQ94AF5k2fzQ-28" value="Review_Date" style="rounded=0;whiteSpace=wrap;html=1;" vertex="1" parent="ztK6fYnErQ94AF5k2fzQ-50">
          <mxGeometry x="718" y="25" width="120" height="60" as="geometry" />
        </mxCell>
        <mxCell id="ztK6fYnErQ94AF5k2fzQ-43" value="&lt;span style=&quot;font-size: 17px;&quot;&gt;&lt;b&gt;Product&lt;/b&gt;&lt;/span&gt;" style="text;html=1;align=left;verticalAlign=middle;whiteSpace=wrap;rounded=0;" vertex="1" parent="ztK6fYnErQ94AF5k2fzQ-50">
          <mxGeometry width="110" height="21" as="geometry" />
        </mxCell>
        <mxCell id="ztK6fYnErQ94AF5k2fzQ-51" value="" style="group" connectable="0" vertex="1" parent="1">
          <mxGeometry x="15" y="179" width="480" height="81" as="geometry" />
        </mxCell>
        <mxCell id="ztK6fYnErQ94AF5k2fzQ-30" value="&lt;u&gt;Image_ID&lt;/u&gt;" style="rounded=0;whiteSpace=wrap;html=1;" vertex="1" parent="ztK6fYnErQ94AF5k2fzQ-51">
          <mxGeometry y="21" width="120" height="60" as="geometry" />
        </mxCell>
        <mxCell id="ztK6fYnErQ94AF5k2fzQ-31" value="Product_ID" style="rounded=0;whiteSpace=wrap;html=1;" vertex="1" parent="ztK6fYnErQ94AF5k2fzQ-51">
          <mxGeometry x="120" y="21" width="120" height="60" as="geometry" />
        </mxCell>
        <mxCell id="ztK6fYnErQ94AF5k2fzQ-32" value="Image_URL" style="rounded=0;whiteSpace=wrap;html=1;" vertex="1" parent="ztK6fYnErQ94AF5k2fzQ-51">
          <mxGeometry x="240" y="21" width="120" height="60" as="geometry" />
        </mxCell>
        <mxCell id="ztK6fYnErQ94AF5k2fzQ-33" value="Caption" style="rounded=0;whiteSpace=wrap;html=1;" vertex="1" parent="ztK6fYnErQ94AF5k2fzQ-51">
          <mxGeometry x="360" y="21" width="120" height="60" as="geometry" />
        </mxCell>
        <mxCell id="ztK6fYnErQ94AF5k2fzQ-44" value="&lt;span style=&quot;font-size: 17px;&quot;&gt;&lt;b&gt;Images&lt;/b&gt;&lt;/span&gt;" style="text;html=1;align=left;verticalAlign=middle;whiteSpace=wrap;rounded=0;" vertex="1" parent="ztK6fYnErQ94AF5k2fzQ-51">
          <mxGeometry x="3" width="110" height="21" as="geometry" />
        </mxCell>
        <mxCell id="ztK6fYnErQ94AF5k2fzQ-52" value="" style="group" connectable="0" vertex="1" parent="1">
          <mxGeometry x="18" y="278" width="360" height="81" as="geometry" />
        </mxCell>
        <mxCell id="ztK6fYnErQ94AF5k2fzQ-34" value="&lt;u&gt;Category_ID&lt;/u&gt;" style="rounded=0;whiteSpace=wrap;html=1;" vertex="1" parent="ztK6fYnErQ94AF5k2fzQ-52">
          <mxGeometry y="21" width="120" height="60" as="geometry" />
        </mxCell>
        <mxCell id="ztK6fYnErQ94AF5k2fzQ-35" value="Name" style="rounded=0;whiteSpace=wrap;html=1;" vertex="1" parent="ztK6fYnErQ94AF5k2fzQ-52">
          <mxGeometry x="120" y="21" width="120" height="60" as="geometry" />
        </mxCell>
        <mxCell id="ztK6fYnErQ94AF5k2fzQ-36" value="Parent_Category" style="rounded=0;whiteSpace=wrap;html=1;" vertex="1" parent="ztK6fYnErQ94AF5k2fzQ-52">
          <mxGeometry x="240" y="21" width="120" height="60" as="geometry" />
        </mxCell>
        <mxCell id="ztK6fYnErQ94AF5k2fzQ-45" value="&lt;b&gt;&lt;font style=&quot;font-size: 17px;&quot;&gt;Category&lt;/font&gt;&lt;/b&gt;" style="text;html=1;align=left;verticalAlign=middle;whiteSpace=wrap;rounded=0;" vertex="1" parent="ztK6fYnErQ94AF5k2fzQ-52">
          <mxGeometry width="110" height="21" as="geometry" />
        </mxCell>
        <mxCell id="ztK6fYnErQ94AF5k2fzQ-53" value="" style="group" connectable="0" vertex="1" parent="1">
          <mxGeometry x="13" y="377" width="360" height="81" as="geometry" />
        </mxCell>
        <mxCell id="ztK6fYnErQ94AF5k2fzQ-54" value="&lt;u&gt;Brand_ID&lt;/u&gt;" style="rounded=0;whiteSpace=wrap;html=1;" vertex="1" parent="ztK6fYnErQ94AF5k2fzQ-53">
          <mxGeometry y="21" width="120" height="60" as="geometry" />
        </mxCell>
        <mxCell id="ztK6fYnErQ94AF5k2fzQ-55" value="Name" style="rounded=0;whiteSpace=wrap;html=1;" vertex="1" parent="ztK6fYnErQ94AF5k2fzQ-53">
          <mxGeometry x="120" y="21" width="120" height="60" as="geometry" />
        </mxCell>
        <mxCell id="ztK6fYnErQ94AF5k2fzQ-57" value="&lt;b&gt;&lt;font style=&quot;font-size: 17px;&quot;&gt;Brand&lt;/font&gt;&lt;/b&gt;" style="text;html=1;align=left;verticalAlign=middle;whiteSpace=wrap;rounded=0;" vertex="1" parent="ztK6fYnErQ94AF5k2fzQ-53">
          <mxGeometry width="110" height="21" as="geometry" />
        </mxCell>
        <mxCell id="ztK6fYnErQ94AF5k2fzQ-69" value="" style="group" connectable="0" vertex="1" parent="1">
          <mxGeometry x="10" y="-267" width="963" height="84" as="geometry" />
        </mxCell>
        <mxCell id="ztK6fYnErQ94AF5k2fzQ-68" value="Date_created" style="rounded=0;whiteSpace=wrap;html=1;" vertex="1" parent="ztK6fYnErQ94AF5k2fzQ-69">
          <mxGeometry x="843" y="24" width="120" height="60" as="geometry" />
        </mxCell>
        <mxCell id="ztK6fYnErQ94AF5k2fzQ-65" value="Hashed_Password" style="rounded=0;whiteSpace=wrap;html=1;" vertex="1" parent="ztK6fYnErQ94AF5k2fzQ-69">
          <mxGeometry x="603" y="24" width="120" height="60" as="geometry" />
        </mxCell>
        <mxCell id="ztK6fYnErQ94AF5k2fzQ-66" value="Salt" style="rounded=0;whiteSpace=wrap;html=1;" vertex="1" parent="ztK6fYnErQ94AF5k2fzQ-69">
          <mxGeometry x="723" y="24" width="120" height="60" as="geometry" />
        </mxCell>
        <mxCell id="ztK6fYnErQ94AF5k2fzQ-2" value="First_name" style="rounded=0;whiteSpace=wrap;html=1;" vertex="1" parent="ztK6fYnErQ94AF5k2fzQ-69">
          <mxGeometry x="123" y="24" width="120" height="60" as="geometry" />
        </mxCell>
        <mxCell id="ztK6fYnErQ94AF5k2fzQ-3" value="Last_name" style="rounded=0;whiteSpace=wrap;html=1;" vertex="1" parent="ztK6fYnErQ94AF5k2fzQ-69">
          <mxGeometry x="243" y="24" width="120" height="60" as="geometry" />
        </mxCell>
        <mxCell id="ztK6fYnErQ94AF5k2fzQ-4" value="Username" style="rounded=0;whiteSpace=wrap;html=1;" vertex="1" parent="ztK6fYnErQ94AF5k2fzQ-69">
          <mxGeometry x="363" y="24" width="120" height="60" as="geometry" />
        </mxCell>
        <mxCell id="ztK6fYnErQ94AF5k2fzQ-5" value="&lt;u&gt;User_ID&lt;/u&gt;" style="rounded=0;whiteSpace=wrap;html=1;" vertex="1" parent="ztK6fYnErQ94AF5k2fzQ-69">
          <mxGeometry x="3" y="24" width="120" height="60" as="geometry" />
        </mxCell>
        <mxCell id="ztK6fYnErQ94AF5k2fzQ-6" value="Email" style="rounded=0;whiteSpace=wrap;html=1;" vertex="1" parent="ztK6fYnErQ94AF5k2fzQ-69">
          <mxGeometry x="483" y="24" width="120" height="60" as="geometry" />
        </mxCell>
        <mxCell id="ztK6fYnErQ94AF5k2fzQ-39" value="&lt;b&gt;&lt;font style=&quot;font-size: 17px;&quot;&gt;User&lt;/font&gt;&lt;/b&gt;" style="text;html=1;align=left;verticalAlign=middle;whiteSpace=wrap;rounded=0;" vertex="1" parent="ztK6fYnErQ94AF5k2fzQ-69">
          <mxGeometry width="110" height="21" as="geometry" />
        </mxCell>
        <mxCell id="ztK6fYnErQ94AF5k2fzQ-70" value="" style="group" connectable="0" vertex="1" parent="1">
          <mxGeometry x="15" y="488" width="360" height="81" as="geometry" />
        </mxCell>
        <mxCell id="ztK6fYnErQ94AF5k2fzQ-71" value="&lt;u&gt;Privilege_ID&lt;/u&gt;" style="rounded=0;whiteSpace=wrap;html=1;" vertex="1" parent="ztK6fYnErQ94AF5k2fzQ-70">
          <mxGeometry y="21" width="120" height="60" as="geometry" />
        </mxCell>
        <mxCell id="ztK6fYnErQ94AF5k2fzQ-72" value="Privilege_Name" style="rounded=0;whiteSpace=wrap;html=1;" vertex="1" parent="ztK6fYnErQ94AF5k2fzQ-70">
          <mxGeometry x="120" y="21" width="120" height="60" as="geometry" />
        </mxCell>
        <mxCell id="ztK6fYnErQ94AF5k2fzQ-73" value="Description" style="rounded=0;whiteSpace=wrap;html=1;" vertex="1" parent="ztK6fYnErQ94AF5k2fzQ-70">
          <mxGeometry x="240" y="21" width="120" height="60" as="geometry" />
        </mxCell>
        <mxCell id="ztK6fYnErQ94AF5k2fzQ-74" value="&lt;span style=&quot;font-size: 17px;&quot;&gt;&lt;b&gt;Privileges&lt;/b&gt;&lt;/span&gt;" style="text;html=1;align=left;verticalAlign=middle;whiteSpace=wrap;rounded=0;" vertex="1" parent="ztK6fYnErQ94AF5k2fzQ-70">
          <mxGeometry width="110" height="21" as="geometry" />
        </mxCell>
        <mxCell id="ztK6fYnErQ94AF5k2fzQ-83" value="" style="group" connectable="0" vertex="1" parent="1">
          <mxGeometry x="13" y="609" width="120" height="81" as="geometry" />
        </mxCell>
        <mxCell id="ztK6fYnErQ94AF5k2fzQ-79" value="Privilege_ID" style="rounded=0;whiteSpace=wrap;html=1;" vertex="1" parent="ztK6fYnErQ94AF5k2fzQ-83">
          <mxGeometry y="21" width="120" height="60" as="geometry" />
        </mxCell>
        <mxCell id="ztK6fYnErQ94AF5k2fzQ-80" value="&lt;span style=&quot;font-size: 17px;&quot;&gt;&lt;b&gt;Admin&lt;/b&gt;&lt;/span&gt;" style="text;html=1;align=left;verticalAlign=middle;whiteSpace=wrap;rounded=0;" vertex="1" parent="ztK6fYnErQ94AF5k2fzQ-83">
          <mxGeometry width="110" height="21" as="geometry" />
        </mxCell>
        <mxCell id="ztK6fYnErQ94AF5k2fzQ-84" value="" style="group" connectable="0" vertex="1" parent="1">
          <mxGeometry x="13" y="726" width="120" height="81" as="geometry" />
        </mxCell>
        <mxCell id="ztK6fYnErQ94AF5k2fzQ-81" value="Is_Memeber" style="rounded=0;whiteSpace=wrap;html=1;" vertex="1" parent="ztK6fYnErQ94AF5k2fzQ-84">
          <mxGeometry y="21" width="120" height="60" as="geometry" />
        </mxCell>
        <mxCell id="ztK6fYnErQ94AF5k2fzQ-82" value="&lt;b&gt;&lt;font style=&quot;font-size: 17px;&quot;&gt;Customer&lt;/font&gt;&lt;/b&gt;" style="text;html=1;align=left;verticalAlign=middle;whiteSpace=wrap;rounded=0;" vertex="1" parent="ztK6fYnErQ94AF5k2fzQ-84">
          <mxGeometry width="110" height="21" as="geometry" />
        </mxCell>
        <mxCell id="ztK6fYnErQ94AF5k2fzQ-85" value="&lt;b&gt;&lt;font style=&quot;font-size: 30px;&quot;&gt;Step 1: Strong Attributes&lt;/font&gt;&lt;/b&gt;" style="text;html=1;align=center;verticalAlign=middle;whiteSpace=wrap;rounded=0;" vertex="1" parent="1">
          <mxGeometry x="-14" y="-332" width="379" height="30" as="geometry" />
        </mxCell>
        <mxCell id="ztK6fYnErQ94AF5k2fzQ-86" value="" style="group" connectable="0" vertex="1" parent="1">
          <mxGeometry x="44" y="1280" width="841" height="86" as="geometry" />
        </mxCell>
        <mxCell id="ztK6fYnErQ94AF5k2fzQ-87" value="&lt;u&gt;Review_ID&lt;/u&gt;" style="rounded=0;whiteSpace=wrap;html=1;" vertex="1" parent="ztK6fYnErQ94AF5k2fzQ-86">
          <mxGeometry x="3" y="26" width="120" height="60" as="geometry" />
        </mxCell>
        <mxCell id="ztK6fYnErQ94AF5k2fzQ-88" value="Rating" style="rounded=0;whiteSpace=wrap;html=1;" vertex="1" parent="ztK6fYnErQ94AF5k2fzQ-86">
          <mxGeometry x="123" y="26" width="120" height="60" as="geometry" />
        </mxCell>
        <mxCell id="ztK6fYnErQ94AF5k2fzQ-89" value="Retailer_ID" style="rounded=0;whiteSpace=wrap;html=1;" vertex="1" parent="ztK6fYnErQ94AF5k2fzQ-86">
          <mxGeometry x="243" y="26" width="120" height="60" as="geometry" />
        </mxCell>
        <mxCell id="ztK6fYnErQ94AF5k2fzQ-90" value="Product_ID" style="rounded=0;whiteSpace=wrap;html=1;" vertex="1" parent="ztK6fYnErQ94AF5k2fzQ-86">
          <mxGeometry x="363" y="26" width="120" height="60" as="geometry" />
        </mxCell>
        <mxCell id="ztK6fYnErQ94AF5k2fzQ-91" value="Comment" style="rounded=0;whiteSpace=wrap;html=1;" vertex="1" parent="ztK6fYnErQ94AF5k2fzQ-86">
          <mxGeometry x="483" y="26" width="120" height="60" as="geometry" />
        </mxCell>
        <mxCell id="ztK6fYnErQ94AF5k2fzQ-92" value="User_ID" style="rounded=0;whiteSpace=wrap;html=1;" vertex="1" parent="ztK6fYnErQ94AF5k2fzQ-86">
          <mxGeometry x="603" y="26" width="120" height="60" as="geometry" />
        </mxCell>
        <mxCell id="ztK6fYnErQ94AF5k2fzQ-93" value="Review_Date" style="rounded=0;whiteSpace=wrap;html=1;" vertex="1" parent="ztK6fYnErQ94AF5k2fzQ-86">
          <mxGeometry x="721" y="26" width="120" height="60" as="geometry" />
        </mxCell>
        <mxCell id="ztK6fYnErQ94AF5k2fzQ-94" value="&lt;span style=&quot;font-size: 17px;&quot;&gt;&lt;b&gt;Review&lt;/b&gt;&lt;/span&gt;" style="text;html=1;align=left;verticalAlign=middle;whiteSpace=wrap;rounded=0;" vertex="1" parent="ztK6fYnErQ94AF5k2fzQ-86">
          <mxGeometry width="110" height="21" as="geometry" />
        </mxCell>
        <mxCell id="ztK6fYnErQ94AF5k2fzQ-95" value="" style="group" connectable="0" vertex="1" parent="1">
          <mxGeometry x="47" y="1391" width="480" height="85" as="geometry" />
        </mxCell>
        <mxCell id="ztK6fYnErQ94AF5k2fzQ-96" value="&lt;u&gt;Retailer_ID&lt;/u&gt;" style="rounded=0;whiteSpace=wrap;html=1;" vertex="1" parent="ztK6fYnErQ94AF5k2fzQ-95">
          <mxGeometry y="25" width="120" height="60" as="geometry" />
        </mxCell>
        <mxCell id="ztK6fYnErQ94AF5k2fzQ-97" value="Name" style="rounded=0;whiteSpace=wrap;html=1;" vertex="1" parent="ztK6fYnErQ94AF5k2fzQ-95">
          <mxGeometry x="120" y="25" width="120" height="60" as="geometry" />
        </mxCell>
        <mxCell id="ztK6fYnErQ94AF5k2fzQ-98" value="Website" style="rounded=0;whiteSpace=wrap;html=1;" vertex="1" parent="ztK6fYnErQ94AF5k2fzQ-95">
          <mxGeometry x="240" y="25" width="120" height="60" as="geometry" />
        </mxCell>
        <mxCell id="ztK6fYnErQ94AF5k2fzQ-99" value="Logo_URL" style="rounded=0;whiteSpace=wrap;html=1;" vertex="1" parent="ztK6fYnErQ94AF5k2fzQ-95">
          <mxGeometry x="360" y="25" width="120" height="60" as="geometry" />
        </mxCell>
        <mxCell id="ztK6fYnErQ94AF5k2fzQ-100" value="&lt;span style=&quot;font-size: 17px;&quot;&gt;&lt;b&gt;Retailer&lt;/b&gt;&lt;/span&gt;" style="text;html=1;align=left;verticalAlign=middle;whiteSpace=wrap;rounded=0;" vertex="1" parent="ztK6fYnErQ94AF5k2fzQ-95">
          <mxGeometry x="-7" width="110" height="21" as="geometry" />
        </mxCell>
        <mxCell id="ztK6fYnErQ94AF5k2fzQ-101" value="" style="group" connectable="0" vertex="1" parent="1">
          <mxGeometry x="47" y="1505" width="838" height="85" as="geometry" />
        </mxCell>
        <mxCell id="ztK6fYnErQ94AF5k2fzQ-102" value="&lt;u&gt;Product_ID&lt;/u&gt;" style="rounded=0;whiteSpace=wrap;html=1;" vertex="1" parent="ztK6fYnErQ94AF5k2fzQ-101">
          <mxGeometry y="25" width="120" height="60" as="geometry" />
        </mxCell>
        <mxCell id="ztK6fYnErQ94AF5k2fzQ-103" value="Brand_ID" style="rounded=0;whiteSpace=wrap;html=1;" vertex="1" parent="ztK6fYnErQ94AF5k2fzQ-101">
          <mxGeometry x="120" y="25" width="120" height="60" as="geometry" />
        </mxCell>
        <mxCell id="ztK6fYnErQ94AF5k2fzQ-104" value="Category_ID" style="rounded=0;whiteSpace=wrap;html=1;" vertex="1" parent="ztK6fYnErQ94AF5k2fzQ-101">
          <mxGeometry x="240" y="25" width="120" height="60" as="geometry" />
        </mxCell>
        <mxCell id="ztK6fYnErQ94AF5k2fzQ-105" value="Name" style="rounded=0;whiteSpace=wrap;html=1;" vertex="1" parent="ztK6fYnErQ94AF5k2fzQ-101">
          <mxGeometry x="360" y="25" width="120" height="60" as="geometry" />
        </mxCell>
        <mxCell id="ztK6fYnErQ94AF5k2fzQ-106" value="Description" style="rounded=0;whiteSpace=wrap;html=1;" vertex="1" parent="ztK6fYnErQ94AF5k2fzQ-101">
          <mxGeometry x="480" y="25" width="120" height="60" as="geometry" />
        </mxCell>
        <mxCell id="ztK6fYnErQ94AF5k2fzQ-107" value="Specifications" style="rounded=0;whiteSpace=wrap;html=1;" vertex="1" parent="ztK6fYnErQ94AF5k2fzQ-101">
          <mxGeometry x="600" y="25" width="120" height="60" as="geometry" />
        </mxCell>
        <mxCell id="ztK6fYnErQ94AF5k2fzQ-108" value="Review_Date" style="rounded=0;whiteSpace=wrap;html=1;" vertex="1" parent="ztK6fYnErQ94AF5k2fzQ-101">
          <mxGeometry x="718" y="25" width="120" height="60" as="geometry" />
        </mxCell>
        <mxCell id="ztK6fYnErQ94AF5k2fzQ-109" value="&lt;span style=&quot;font-size: 17px;&quot;&gt;&lt;b&gt;Product&lt;/b&gt;&lt;/span&gt;" style="text;html=1;align=left;verticalAlign=middle;whiteSpace=wrap;rounded=0;" vertex="1" parent="ztK6fYnErQ94AF5k2fzQ-101">
          <mxGeometry width="110" height="21" as="geometry" />
        </mxCell>
        <mxCell id="ztK6fYnErQ94AF5k2fzQ-110" value="" style="group" connectable="0" vertex="1" parent="1">
          <mxGeometry x="47" y="1614" width="480" height="81" as="geometry" />
        </mxCell>
        <mxCell id="ztK6fYnErQ94AF5k2fzQ-111" value="&lt;u&gt;Image_ID&lt;/u&gt;" style="rounded=0;whiteSpace=wrap;html=1;" vertex="1" parent="ztK6fYnErQ94AF5k2fzQ-110">
          <mxGeometry y="21" width="120" height="60" as="geometry" />
        </mxCell>
        <mxCell id="ztK6fYnErQ94AF5k2fzQ-112" value="Product_ID" style="rounded=0;whiteSpace=wrap;html=1;" vertex="1" parent="ztK6fYnErQ94AF5k2fzQ-110">
          <mxGeometry x="120" y="21" width="120" height="60" as="geometry" />
        </mxCell>
        <mxCell id="ztK6fYnErQ94AF5k2fzQ-113" value="Image_URL" style="rounded=0;whiteSpace=wrap;html=1;" vertex="1" parent="ztK6fYnErQ94AF5k2fzQ-110">
          <mxGeometry x="240" y="21" width="120" height="60" as="geometry" />
        </mxCell>
        <mxCell id="ztK6fYnErQ94AF5k2fzQ-114" value="Caption" style="rounded=0;whiteSpace=wrap;html=1;" vertex="1" parent="ztK6fYnErQ94AF5k2fzQ-110">
          <mxGeometry x="360" y="21" width="120" height="60" as="geometry" />
        </mxCell>
        <mxCell id="ztK6fYnErQ94AF5k2fzQ-115" value="&lt;span style=&quot;font-size: 17px;&quot;&gt;&lt;b&gt;Images&lt;/b&gt;&lt;/span&gt;" style="text;html=1;align=left;verticalAlign=middle;whiteSpace=wrap;rounded=0;" vertex="1" parent="ztK6fYnErQ94AF5k2fzQ-110">
          <mxGeometry x="3" width="110" height="21" as="geometry" />
        </mxCell>
        <mxCell id="ztK6fYnErQ94AF5k2fzQ-116" value="" style="group" connectable="0" vertex="1" parent="1">
          <mxGeometry x="50" y="1713" width="360" height="81" as="geometry" />
        </mxCell>
        <mxCell id="ztK6fYnErQ94AF5k2fzQ-117" value="&lt;u&gt;Category_ID&lt;/u&gt;" style="rounded=0;whiteSpace=wrap;html=1;" vertex="1" parent="ztK6fYnErQ94AF5k2fzQ-116">
          <mxGeometry y="21" width="120" height="60" as="geometry" />
        </mxCell>
        <mxCell id="ztK6fYnErQ94AF5k2fzQ-118" value="Name" style="rounded=0;whiteSpace=wrap;html=1;" vertex="1" parent="ztK6fYnErQ94AF5k2fzQ-116">
          <mxGeometry x="120" y="21" width="120" height="60" as="geometry" />
        </mxCell>
        <mxCell id="ztK6fYnErQ94AF5k2fzQ-119" value="Parent_Category" style="rounded=0;whiteSpace=wrap;html=1;" vertex="1" parent="ztK6fYnErQ94AF5k2fzQ-116">
          <mxGeometry x="240" y="21" width="120" height="60" as="geometry" />
        </mxCell>
        <mxCell id="ztK6fYnErQ94AF5k2fzQ-120" value="&lt;b&gt;&lt;font style=&quot;font-size: 17px;&quot;&gt;Category&lt;/font&gt;&lt;/b&gt;" style="text;html=1;align=left;verticalAlign=middle;whiteSpace=wrap;rounded=0;" vertex="1" parent="ztK6fYnErQ94AF5k2fzQ-116">
          <mxGeometry width="110" height="21" as="geometry" />
        </mxCell>
        <mxCell id="ztK6fYnErQ94AF5k2fzQ-121" value="" style="group" connectable="0" vertex="1" parent="1">
          <mxGeometry x="45" y="1812" width="360" height="81" as="geometry" />
        </mxCell>
        <mxCell id="ztK6fYnErQ94AF5k2fzQ-122" value="&lt;u&gt;Brand_ID&lt;/u&gt;" style="rounded=0;whiteSpace=wrap;html=1;" vertex="1" parent="ztK6fYnErQ94AF5k2fzQ-121">
          <mxGeometry y="21" width="120" height="60" as="geometry" />
        </mxCell>
        <mxCell id="ztK6fYnErQ94AF5k2fzQ-123" value="Name" style="rounded=0;whiteSpace=wrap;html=1;" vertex="1" parent="ztK6fYnErQ94AF5k2fzQ-121">
          <mxGeometry x="120" y="21" width="120" height="60" as="geometry" />
        </mxCell>
        <mxCell id="ztK6fYnErQ94AF5k2fzQ-124" value="&lt;b&gt;&lt;font style=&quot;font-size: 17px;&quot;&gt;Brand&lt;/font&gt;&lt;/b&gt;" style="text;html=1;align=left;verticalAlign=middle;whiteSpace=wrap;rounded=0;" vertex="1" parent="ztK6fYnErQ94AF5k2fzQ-121">
          <mxGeometry width="110" height="21" as="geometry" />
        </mxCell>
        <mxCell id="ztK6fYnErQ94AF5k2fzQ-125" value="" style="group" connectable="0" vertex="1" parent="1">
          <mxGeometry x="42" y="1168" width="963" height="84" as="geometry" />
        </mxCell>
        <mxCell id="ztK6fYnErQ94AF5k2fzQ-126" value="Date_created" style="rounded=0;whiteSpace=wrap;html=1;" vertex="1" parent="ztK6fYnErQ94AF5k2fzQ-125">
          <mxGeometry x="843" y="24" width="120" height="60" as="geometry" />
        </mxCell>
        <mxCell id="ztK6fYnErQ94AF5k2fzQ-127" value="Hashed_Password" style="rounded=0;whiteSpace=wrap;html=1;" vertex="1" parent="ztK6fYnErQ94AF5k2fzQ-125">
          <mxGeometry x="603" y="24" width="120" height="60" as="geometry" />
        </mxCell>
        <mxCell id="ztK6fYnErQ94AF5k2fzQ-128" value="Salt" style="rounded=0;whiteSpace=wrap;html=1;" vertex="1" parent="ztK6fYnErQ94AF5k2fzQ-125">
          <mxGeometry x="723" y="24" width="120" height="60" as="geometry" />
        </mxCell>
        <mxCell id="ztK6fYnErQ94AF5k2fzQ-129" value="First_name" style="rounded=0;whiteSpace=wrap;html=1;" vertex="1" parent="ztK6fYnErQ94AF5k2fzQ-125">
          <mxGeometry x="123" y="24" width="120" height="60" as="geometry" />
        </mxCell>
        <mxCell id="ztK6fYnErQ94AF5k2fzQ-130" value="Last_name" style="rounded=0;whiteSpace=wrap;html=1;" vertex="1" parent="ztK6fYnErQ94AF5k2fzQ-125">
          <mxGeometry x="243" y="24" width="120" height="60" as="geometry" />
        </mxCell>
        <mxCell id="ztK6fYnErQ94AF5k2fzQ-131" value="Username" style="rounded=0;whiteSpace=wrap;html=1;" vertex="1" parent="ztK6fYnErQ94AF5k2fzQ-125">
          <mxGeometry x="363" y="24" width="120" height="60" as="geometry" />
        </mxCell>
        <mxCell id="ztK6fYnErQ94AF5k2fzQ-132" value="&lt;u&gt;User_ID&lt;/u&gt;" style="rounded=0;whiteSpace=wrap;html=1;" vertex="1" parent="ztK6fYnErQ94AF5k2fzQ-125">
          <mxGeometry x="3" y="24" width="120" height="60" as="geometry" />
        </mxCell>
        <mxCell id="ztK6fYnErQ94AF5k2fzQ-133" value="Email" style="rounded=0;whiteSpace=wrap;html=1;" vertex="1" parent="ztK6fYnErQ94AF5k2fzQ-125">
          <mxGeometry x="483" y="24" width="120" height="60" as="geometry" />
        </mxCell>
        <mxCell id="ztK6fYnErQ94AF5k2fzQ-134" value="&lt;b&gt;&lt;font style=&quot;font-size: 17px;&quot;&gt;User&lt;/font&gt;&lt;/b&gt;" style="text;html=1;align=left;verticalAlign=middle;whiteSpace=wrap;rounded=0;" vertex="1" parent="ztK6fYnErQ94AF5k2fzQ-125">
          <mxGeometry width="110" height="21" as="geometry" />
        </mxCell>
        <mxCell id="ztK6fYnErQ94AF5k2fzQ-135" value="" style="group" connectable="0" vertex="1" parent="1">
          <mxGeometry x="47" y="1923" width="360" height="81" as="geometry" />
        </mxCell>
        <mxCell id="ztK6fYnErQ94AF5k2fzQ-136" value="&lt;u&gt;Privilege_ID&lt;/u&gt;" style="rounded=0;whiteSpace=wrap;html=1;" vertex="1" parent="ztK6fYnErQ94AF5k2fzQ-135">
          <mxGeometry y="21" width="120" height="60" as="geometry" />
        </mxCell>
        <mxCell id="ztK6fYnErQ94AF5k2fzQ-137" value="Privilege_Name" style="rounded=0;whiteSpace=wrap;html=1;" vertex="1" parent="ztK6fYnErQ94AF5k2fzQ-135">
          <mxGeometry x="120" y="21" width="120" height="60" as="geometry" />
        </mxCell>
        <mxCell id="ztK6fYnErQ94AF5k2fzQ-138" value="Description" style="rounded=0;whiteSpace=wrap;html=1;" vertex="1" parent="ztK6fYnErQ94AF5k2fzQ-135">
          <mxGeometry x="240" y="21" width="120" height="60" as="geometry" />
        </mxCell>
        <mxCell id="ztK6fYnErQ94AF5k2fzQ-139" value="&lt;span style=&quot;font-size: 17px;&quot;&gt;&lt;b&gt;Privileges&lt;/b&gt;&lt;/span&gt;" style="text;html=1;align=left;verticalAlign=middle;whiteSpace=wrap;rounded=0;" vertex="1" parent="ztK6fYnErQ94AF5k2fzQ-135">
          <mxGeometry width="110" height="21" as="geometry" />
        </mxCell>
        <mxCell id="ztK6fYnErQ94AF5k2fzQ-140" value="" style="group" connectable="0" vertex="1" parent="1">
          <mxGeometry x="45" y="2044" width="120" height="81" as="geometry" />
        </mxCell>
        <mxCell id="ztK6fYnErQ94AF5k2fzQ-141" value="Privilege_ID" style="rounded=0;whiteSpace=wrap;html=1;" vertex="1" parent="ztK6fYnErQ94AF5k2fzQ-140">
          <mxGeometry y="21" width="120" height="60" as="geometry" />
        </mxCell>
        <mxCell id="ztK6fYnErQ94AF5k2fzQ-142" value="&lt;span style=&quot;font-size: 17px;&quot;&gt;&lt;b&gt;Admin&lt;/b&gt;&lt;/span&gt;" style="text;html=1;align=left;verticalAlign=middle;whiteSpace=wrap;rounded=0;" vertex="1" parent="ztK6fYnErQ94AF5k2fzQ-140">
          <mxGeometry width="110" height="21" as="geometry" />
        </mxCell>
        <mxCell id="ztK6fYnErQ94AF5k2fzQ-143" value="" style="group" connectable="0" vertex="1" parent="1">
          <mxGeometry x="45" y="2161" width="120" height="81" as="geometry" />
        </mxCell>
        <mxCell id="ztK6fYnErQ94AF5k2fzQ-144" value="Is_Memeber" style="rounded=0;whiteSpace=wrap;html=1;" vertex="1" parent="ztK6fYnErQ94AF5k2fzQ-143">
          <mxGeometry y="21" width="120" height="60" as="geometry" />
        </mxCell>
        <mxCell id="ztK6fYnErQ94AF5k2fzQ-145" value="&lt;b&gt;&lt;font style=&quot;font-size: 17px;&quot;&gt;Customer&lt;/font&gt;&lt;/b&gt;" style="text;html=1;align=left;verticalAlign=middle;whiteSpace=wrap;rounded=0;" vertex="1" parent="ztK6fYnErQ94AF5k2fzQ-143">
          <mxGeometry width="110" height="21" as="geometry" />
        </mxCell>
        <mxCell id="ztK6fYnErQ94AF5k2fzQ-146" value="&lt;b&gt;&lt;font style=&quot;font-size: 30px;&quot;&gt;Step 2: Weak Attribute: Wishlist&lt;/font&gt;&lt;/b&gt;" style="text;html=1;align=center;verticalAlign=middle;whiteSpace=wrap;rounded=0;" vertex="1" parent="1">
          <mxGeometry x="18" y="1103" width="510" height="30" as="geometry" />
        </mxCell>
        <mxCell id="ztK6fYnErQ94AF5k2fzQ-147" value="" style="group" connectable="0" vertex="1" parent="1">
          <mxGeometry x="45" y="2278" width="360" height="81" as="geometry" />
        </mxCell>
        <mxCell id="ztK6fYnErQ94AF5k2fzQ-148" value="&lt;u&gt;User_ID&lt;/u&gt;" style="rounded=0;whiteSpace=wrap;html=1;" vertex="1" parent="ztK6fYnErQ94AF5k2fzQ-147">
          <mxGeometry y="21" width="120" height="60" as="geometry" />
        </mxCell>
        <mxCell id="ztK6fYnErQ94AF5k2fzQ-149" value="&lt;u&gt;Product_ID&lt;/u&gt;" style="rounded=0;whiteSpace=wrap;html=1;" vertex="1" parent="ztK6fYnErQ94AF5k2fzQ-147">
          <mxGeometry x="120" y="21" width="120" height="60" as="geometry" />
        </mxCell>
        <mxCell id="ztK6fYnErQ94AF5k2fzQ-150" value="Date_Added" style="rounded=0;whiteSpace=wrap;html=1;" vertex="1" parent="ztK6fYnErQ94AF5k2fzQ-147">
          <mxGeometry x="240" y="21" width="120" height="60" as="geometry" />
        </mxCell>
        <mxCell id="ztK6fYnErQ94AF5k2fzQ-151" value="&lt;span style=&quot;font-size: 17px;&quot;&gt;&lt;b&gt;Wishlist&lt;/b&gt;&lt;/span&gt;" style="text;html=1;align=left;verticalAlign=middle;whiteSpace=wrap;rounded=0;" vertex="1" parent="ztK6fYnErQ94AF5k2fzQ-147">
          <mxGeometry width="110" height="21" as="geometry" />
        </mxCell>
        <mxCell id="ztK6fYnErQ94AF5k2fzQ-152" style="edgeStyle=orthogonalEdgeStyle;rounded=0;orthogonalLoop=1;jettySize=auto;html=1;fontSize=12;startSize=8;endSize=8;exitX=0.5;exitY=1;exitDx=0;exitDy=0;entryX=0.051;entryY=1.011;entryDx=0;entryDy=0;elbow=vertical;entryPerimeter=0;" edge="1" parent="1" source="ztK6fYnErQ94AF5k2fzQ-148" target="ztK6fYnErQ94AF5k2fzQ-132">
          <mxGeometry relative="1" as="geometry">
            <mxPoint x="71.4249153137207" y="2615.6000061035156" as="targetPoint" />
            <Array as="points">
              <mxPoint x="105" y="2382" />
              <mxPoint x="915" y="2382" />
              <mxPoint x="915" y="1279" />
              <mxPoint x="52" y="1279" />
            </Array>
          </mxGeometry>
        </mxCell>
        <mxCell id="ztK6fYnErQ94AF5k2fzQ-153" style="edgeStyle=orthogonalEdgeStyle;rounded=0;orthogonalLoop=1;jettySize=auto;html=1;fontSize=12;startSize=8;endSize=8;entryX=0.084;entryY=0.994;entryDx=0;entryDy=0;entryPerimeter=0;exitX=0.5;exitY=1;exitDx=0;exitDy=0;" edge="1" parent="1" source="ztK6fYnErQ94AF5k2fzQ-149" target="ztK6fYnErQ94AF5k2fzQ-102">
          <mxGeometry relative="1" as="geometry">
            <mxPoint x="225" y="2413.56005859375" as="targetPoint" />
            <Array as="points">
              <mxPoint x="225" y="2372" />
              <mxPoint x="546" y="2372" />
              <mxPoint x="546" y="1608" />
              <mxPoint x="57" y="1608" />
            </Array>
          </mxGeometry>
        </mxCell>
        <mxCell id="ztK6fYnErQ94AF5k2fzQ-154" value="" style="group" connectable="0" vertex="1" parent="1">
          <mxGeometry x="75" y="2750" width="841" height="86" as="geometry" />
        </mxCell>
        <mxCell id="ztK6fYnErQ94AF5k2fzQ-155" value="&lt;u&gt;Review_ID&lt;/u&gt;" style="rounded=0;whiteSpace=wrap;html=1;" vertex="1" parent="ztK6fYnErQ94AF5k2fzQ-154">
          <mxGeometry x="3" y="26" width="120" height="60" as="geometry" />
        </mxCell>
        <mxCell id="ztK6fYnErQ94AF5k2fzQ-156" value="Rating" style="rounded=0;whiteSpace=wrap;html=1;" vertex="1" parent="ztK6fYnErQ94AF5k2fzQ-154">
          <mxGeometry x="123" y="26" width="120" height="60" as="geometry" />
        </mxCell>
        <mxCell id="ztK6fYnErQ94AF5k2fzQ-157" value="Retailer_ID" style="rounded=0;whiteSpace=wrap;html=1;" vertex="1" parent="ztK6fYnErQ94AF5k2fzQ-154">
          <mxGeometry x="243" y="26" width="120" height="60" as="geometry" />
        </mxCell>
        <mxCell id="ztK6fYnErQ94AF5k2fzQ-158" value="Product_ID" style="rounded=0;whiteSpace=wrap;html=1;" vertex="1" parent="ztK6fYnErQ94AF5k2fzQ-154">
          <mxGeometry x="363" y="26" width="120" height="60" as="geometry" />
        </mxCell>
        <mxCell id="ztK6fYnErQ94AF5k2fzQ-159" value="Comment" style="rounded=0;whiteSpace=wrap;html=1;" vertex="1" parent="ztK6fYnErQ94AF5k2fzQ-154">
          <mxGeometry x="483" y="26" width="120" height="60" as="geometry" />
        </mxCell>
        <mxCell id="ztK6fYnErQ94AF5k2fzQ-160" value="User_ID" style="rounded=0;whiteSpace=wrap;html=1;" vertex="1" parent="ztK6fYnErQ94AF5k2fzQ-154">
          <mxGeometry x="603" y="26" width="120" height="60" as="geometry" />
        </mxCell>
        <mxCell id="ztK6fYnErQ94AF5k2fzQ-161" value="Review_Date" style="rounded=0;whiteSpace=wrap;html=1;" vertex="1" parent="ztK6fYnErQ94AF5k2fzQ-154">
          <mxGeometry x="721" y="26" width="120" height="60" as="geometry" />
        </mxCell>
        <mxCell id="ztK6fYnErQ94AF5k2fzQ-162" value="&lt;span style=&quot;font-size: 17px;&quot;&gt;&lt;b&gt;Review&lt;/b&gt;&lt;/span&gt;" style="text;html=1;align=left;verticalAlign=middle;whiteSpace=wrap;rounded=0;" vertex="1" parent="ztK6fYnErQ94AF5k2fzQ-154">
          <mxGeometry width="110" height="21" as="geometry" />
        </mxCell>
        <mxCell id="ztK6fYnErQ94AF5k2fzQ-163" value="" style="group" connectable="0" vertex="1" parent="1">
          <mxGeometry x="78" y="2861" width="480" height="85" as="geometry" />
        </mxCell>
        <mxCell id="ztK6fYnErQ94AF5k2fzQ-164" value="&lt;u&gt;Retailer_ID&lt;/u&gt;" style="rounded=0;whiteSpace=wrap;html=1;" vertex="1" parent="ztK6fYnErQ94AF5k2fzQ-163">
          <mxGeometry y="25" width="120" height="60" as="geometry" />
        </mxCell>
        <mxCell id="ztK6fYnErQ94AF5k2fzQ-165" value="Name" style="rounded=0;whiteSpace=wrap;html=1;" vertex="1" parent="ztK6fYnErQ94AF5k2fzQ-163">
          <mxGeometry x="120" y="25" width="120" height="60" as="geometry" />
        </mxCell>
        <mxCell id="ztK6fYnErQ94AF5k2fzQ-166" value="Website" style="rounded=0;whiteSpace=wrap;html=1;" vertex="1" parent="ztK6fYnErQ94AF5k2fzQ-163">
          <mxGeometry x="240" y="25" width="120" height="60" as="geometry" />
        </mxCell>
        <mxCell id="ztK6fYnErQ94AF5k2fzQ-167" value="Logo_URL" style="rounded=0;whiteSpace=wrap;html=1;" vertex="1" parent="ztK6fYnErQ94AF5k2fzQ-163">
          <mxGeometry x="360" y="25" width="120" height="60" as="geometry" />
        </mxCell>
        <mxCell id="ztK6fYnErQ94AF5k2fzQ-168" value="&lt;span style=&quot;font-size: 17px;&quot;&gt;&lt;b&gt;Retailer&lt;/b&gt;&lt;/span&gt;" style="text;html=1;align=left;verticalAlign=middle;whiteSpace=wrap;rounded=0;" vertex="1" parent="ztK6fYnErQ94AF5k2fzQ-163">
          <mxGeometry x="-7" width="110" height="21" as="geometry" />
        </mxCell>
        <mxCell id="ztK6fYnErQ94AF5k2fzQ-169" value="" style="group" connectable="0" vertex="1" parent="1">
          <mxGeometry x="78" y="2975" width="838" height="85" as="geometry" />
        </mxCell>
        <mxCell id="ztK6fYnErQ94AF5k2fzQ-170" value="&lt;u&gt;Product_ID&lt;/u&gt;" style="rounded=0;whiteSpace=wrap;html=1;" vertex="1" parent="ztK6fYnErQ94AF5k2fzQ-169">
          <mxGeometry y="25" width="120" height="60" as="geometry" />
        </mxCell>
        <mxCell id="ztK6fYnErQ94AF5k2fzQ-171" value="Brand_ID" style="rounded=0;whiteSpace=wrap;html=1;" vertex="1" parent="ztK6fYnErQ94AF5k2fzQ-169">
          <mxGeometry x="120" y="25" width="120" height="60" as="geometry" />
        </mxCell>
        <mxCell id="ztK6fYnErQ94AF5k2fzQ-172" value="Category_ID" style="rounded=0;whiteSpace=wrap;html=1;" vertex="1" parent="ztK6fYnErQ94AF5k2fzQ-169">
          <mxGeometry x="240" y="25" width="120" height="60" as="geometry" />
        </mxCell>
        <mxCell id="ztK6fYnErQ94AF5k2fzQ-173" value="Name" style="rounded=0;whiteSpace=wrap;html=1;" vertex="1" parent="ztK6fYnErQ94AF5k2fzQ-169">
          <mxGeometry x="360" y="25" width="120" height="60" as="geometry" />
        </mxCell>
        <mxCell id="ztK6fYnErQ94AF5k2fzQ-174" value="Description" style="rounded=0;whiteSpace=wrap;html=1;" vertex="1" parent="ztK6fYnErQ94AF5k2fzQ-169">
          <mxGeometry x="480" y="25" width="120" height="60" as="geometry" />
        </mxCell>
        <mxCell id="ztK6fYnErQ94AF5k2fzQ-175" value="Specifications" style="rounded=0;whiteSpace=wrap;html=1;" vertex="1" parent="ztK6fYnErQ94AF5k2fzQ-169">
          <mxGeometry x="600" y="25" width="120" height="60" as="geometry" />
        </mxCell>
        <mxCell id="ztK6fYnErQ94AF5k2fzQ-176" value="Review_Date" style="rounded=0;whiteSpace=wrap;html=1;" vertex="1" parent="ztK6fYnErQ94AF5k2fzQ-169">
          <mxGeometry x="718" y="25" width="120" height="60" as="geometry" />
        </mxCell>
        <mxCell id="ztK6fYnErQ94AF5k2fzQ-177" value="&lt;span style=&quot;font-size: 17px;&quot;&gt;&lt;b&gt;Product&lt;/b&gt;&lt;/span&gt;" style="text;html=1;align=left;verticalAlign=middle;whiteSpace=wrap;rounded=0;" vertex="1" parent="ztK6fYnErQ94AF5k2fzQ-169">
          <mxGeometry width="110" height="21" as="geometry" />
        </mxCell>
        <mxCell id="ztK6fYnErQ94AF5k2fzQ-178" value="" style="group" connectable="0" vertex="1" parent="1">
          <mxGeometry x="78" y="3084" width="480" height="81" as="geometry" />
        </mxCell>
        <mxCell id="ztK6fYnErQ94AF5k2fzQ-179" value="&lt;u&gt;Image_ID&lt;/u&gt;" style="rounded=0;whiteSpace=wrap;html=1;" vertex="1" parent="ztK6fYnErQ94AF5k2fzQ-178">
          <mxGeometry y="21" width="120" height="60" as="geometry" />
        </mxCell>
        <mxCell id="ztK6fYnErQ94AF5k2fzQ-180" value="Product_ID" style="rounded=0;whiteSpace=wrap;html=1;" vertex="1" parent="ztK6fYnErQ94AF5k2fzQ-178">
          <mxGeometry x="120" y="21" width="120" height="60" as="geometry" />
        </mxCell>
        <mxCell id="ztK6fYnErQ94AF5k2fzQ-181" value="Image_URL" style="rounded=0;whiteSpace=wrap;html=1;" vertex="1" parent="ztK6fYnErQ94AF5k2fzQ-178">
          <mxGeometry x="240" y="21" width="120" height="60" as="geometry" />
        </mxCell>
        <mxCell id="ztK6fYnErQ94AF5k2fzQ-182" value="Caption" style="rounded=0;whiteSpace=wrap;html=1;" vertex="1" parent="ztK6fYnErQ94AF5k2fzQ-178">
          <mxGeometry x="360" y="21" width="120" height="60" as="geometry" />
        </mxCell>
        <mxCell id="ztK6fYnErQ94AF5k2fzQ-183" value="&lt;span style=&quot;font-size: 17px;&quot;&gt;&lt;b&gt;Images&lt;/b&gt;&lt;/span&gt;" style="text;html=1;align=left;verticalAlign=middle;whiteSpace=wrap;rounded=0;" vertex="1" parent="ztK6fYnErQ94AF5k2fzQ-178">
          <mxGeometry x="3" width="110" height="21" as="geometry" />
        </mxCell>
        <mxCell id="ztK6fYnErQ94AF5k2fzQ-184" value="" style="group" connectable="0" vertex="1" parent="1">
          <mxGeometry x="81" y="3183" width="360" height="81" as="geometry" />
        </mxCell>
        <mxCell id="ztK6fYnErQ94AF5k2fzQ-185" value="&lt;u&gt;Category_ID&lt;/u&gt;" style="rounded=0;whiteSpace=wrap;html=1;" vertex="1" parent="ztK6fYnErQ94AF5k2fzQ-184">
          <mxGeometry y="21" width="120" height="60" as="geometry" />
        </mxCell>
        <mxCell id="ztK6fYnErQ94AF5k2fzQ-186" value="Name" style="rounded=0;whiteSpace=wrap;html=1;" vertex="1" parent="ztK6fYnErQ94AF5k2fzQ-184">
          <mxGeometry x="120" y="21" width="120" height="60" as="geometry" />
        </mxCell>
        <mxCell id="ztK6fYnErQ94AF5k2fzQ-187" value="Parent_Category" style="rounded=0;whiteSpace=wrap;html=1;" vertex="1" parent="ztK6fYnErQ94AF5k2fzQ-184">
          <mxGeometry x="240" y="21" width="120" height="60" as="geometry" />
        </mxCell>
        <mxCell id="ztK6fYnErQ94AF5k2fzQ-188" value="&lt;b&gt;&lt;font style=&quot;font-size: 17px;&quot;&gt;Category&lt;/font&gt;&lt;/b&gt;" style="text;html=1;align=left;verticalAlign=middle;whiteSpace=wrap;rounded=0;" vertex="1" parent="ztK6fYnErQ94AF5k2fzQ-184">
          <mxGeometry width="110" height="21" as="geometry" />
        </mxCell>
        <mxCell id="ztK6fYnErQ94AF5k2fzQ-189" value="" style="group" connectable="0" vertex="1" parent="1">
          <mxGeometry x="76" y="3282" width="360" height="81" as="geometry" />
        </mxCell>
        <mxCell id="ztK6fYnErQ94AF5k2fzQ-190" value="&lt;u&gt;Brand_ID&lt;/u&gt;" style="rounded=0;whiteSpace=wrap;html=1;" vertex="1" parent="ztK6fYnErQ94AF5k2fzQ-189">
          <mxGeometry y="21" width="120" height="60" as="geometry" />
        </mxCell>
        <mxCell id="ztK6fYnErQ94AF5k2fzQ-191" value="Name" style="rounded=0;whiteSpace=wrap;html=1;" vertex="1" parent="ztK6fYnErQ94AF5k2fzQ-189">
          <mxGeometry x="120" y="21" width="120" height="60" as="geometry" />
        </mxCell>
        <mxCell id="ztK6fYnErQ94AF5k2fzQ-192" value="&lt;b&gt;&lt;font style=&quot;font-size: 17px;&quot;&gt;Brand&lt;/font&gt;&lt;/b&gt;" style="text;html=1;align=left;verticalAlign=middle;whiteSpace=wrap;rounded=0;" vertex="1" parent="ztK6fYnErQ94AF5k2fzQ-189">
          <mxGeometry width="110" height="21" as="geometry" />
        </mxCell>
        <mxCell id="ztK6fYnErQ94AF5k2fzQ-193" value="" style="group" connectable="0" vertex="1" parent="1">
          <mxGeometry x="73" y="2638" width="963" height="84" as="geometry" />
        </mxCell>
        <mxCell id="ztK6fYnErQ94AF5k2fzQ-194" value="Date_created" style="rounded=0;whiteSpace=wrap;html=1;" vertex="1" parent="ztK6fYnErQ94AF5k2fzQ-193">
          <mxGeometry x="843" y="24" width="120" height="60" as="geometry" />
        </mxCell>
        <mxCell id="ztK6fYnErQ94AF5k2fzQ-195" value="Hashed_Password" style="rounded=0;whiteSpace=wrap;html=1;" vertex="1" parent="ztK6fYnErQ94AF5k2fzQ-193">
          <mxGeometry x="603" y="24" width="120" height="60" as="geometry" />
        </mxCell>
        <mxCell id="ztK6fYnErQ94AF5k2fzQ-196" value="Salt" style="rounded=0;whiteSpace=wrap;html=1;" vertex="1" parent="ztK6fYnErQ94AF5k2fzQ-193">
          <mxGeometry x="723" y="24" width="120" height="60" as="geometry" />
        </mxCell>
        <mxCell id="ztK6fYnErQ94AF5k2fzQ-197" value="First_name" style="rounded=0;whiteSpace=wrap;html=1;" vertex="1" parent="ztK6fYnErQ94AF5k2fzQ-193">
          <mxGeometry x="123" y="24" width="120" height="60" as="geometry" />
        </mxCell>
        <mxCell id="ztK6fYnErQ94AF5k2fzQ-198" value="Last_name" style="rounded=0;whiteSpace=wrap;html=1;" vertex="1" parent="ztK6fYnErQ94AF5k2fzQ-193">
          <mxGeometry x="243" y="24" width="120" height="60" as="geometry" />
        </mxCell>
        <mxCell id="ztK6fYnErQ94AF5k2fzQ-199" value="Username" style="rounded=0;whiteSpace=wrap;html=1;" vertex="1" parent="ztK6fYnErQ94AF5k2fzQ-193">
          <mxGeometry x="363" y="24" width="120" height="60" as="geometry" />
        </mxCell>
        <mxCell id="ztK6fYnErQ94AF5k2fzQ-200" value="&lt;u&gt;User_ID&lt;/u&gt;" style="rounded=0;whiteSpace=wrap;html=1;" vertex="1" parent="ztK6fYnErQ94AF5k2fzQ-193">
          <mxGeometry x="3" y="24" width="120" height="60" as="geometry" />
        </mxCell>
        <mxCell id="ztK6fYnErQ94AF5k2fzQ-201" value="Email" style="rounded=0;whiteSpace=wrap;html=1;" vertex="1" parent="ztK6fYnErQ94AF5k2fzQ-193">
          <mxGeometry x="483" y="24" width="120" height="60" as="geometry" />
        </mxCell>
        <mxCell id="ztK6fYnErQ94AF5k2fzQ-202" value="&lt;b&gt;&lt;font style=&quot;font-size: 17px;&quot;&gt;User&lt;/font&gt;&lt;/b&gt;" style="text;html=1;align=left;verticalAlign=middle;whiteSpace=wrap;rounded=0;" vertex="1" parent="ztK6fYnErQ94AF5k2fzQ-193">
          <mxGeometry width="110" height="21" as="geometry" />
        </mxCell>
        <mxCell id="ztK6fYnErQ94AF5k2fzQ-203" value="" style="group" connectable="0" vertex="1" parent="1">
          <mxGeometry x="78" y="3393" width="360" height="81" as="geometry" />
        </mxCell>
        <mxCell id="ztK6fYnErQ94AF5k2fzQ-204" value="&lt;u&gt;Privilege_ID&lt;/u&gt;" style="rounded=0;whiteSpace=wrap;html=1;" vertex="1" parent="ztK6fYnErQ94AF5k2fzQ-203">
          <mxGeometry y="21" width="120" height="60" as="geometry" />
        </mxCell>
        <mxCell id="ztK6fYnErQ94AF5k2fzQ-205" value="Privilege_Name" style="rounded=0;whiteSpace=wrap;html=1;" vertex="1" parent="ztK6fYnErQ94AF5k2fzQ-203">
          <mxGeometry x="120" y="21" width="120" height="60" as="geometry" />
        </mxCell>
        <mxCell id="ztK6fYnErQ94AF5k2fzQ-206" value="Description" style="rounded=0;whiteSpace=wrap;html=1;" vertex="1" parent="ztK6fYnErQ94AF5k2fzQ-203">
          <mxGeometry x="240" y="21" width="120" height="60" as="geometry" />
        </mxCell>
        <mxCell id="ztK6fYnErQ94AF5k2fzQ-207" value="&lt;span style=&quot;font-size: 17px;&quot;&gt;&lt;b&gt;Privileges&lt;/b&gt;&lt;/span&gt;" style="text;html=1;align=left;verticalAlign=middle;whiteSpace=wrap;rounded=0;" vertex="1" parent="ztK6fYnErQ94AF5k2fzQ-203">
          <mxGeometry width="110" height="21" as="geometry" />
        </mxCell>
        <mxCell id="ztK6fYnErQ94AF5k2fzQ-208" value="" style="group" connectable="0" vertex="1" parent="1">
          <mxGeometry x="76" y="3514" width="120" height="81" as="geometry" />
        </mxCell>
        <mxCell id="ztK6fYnErQ94AF5k2fzQ-209" value="Privilege_ID" style="rounded=0;whiteSpace=wrap;html=1;" vertex="1" parent="ztK6fYnErQ94AF5k2fzQ-208">
          <mxGeometry y="21" width="120" height="60" as="geometry" />
        </mxCell>
        <mxCell id="ztK6fYnErQ94AF5k2fzQ-210" value="&lt;span style=&quot;font-size: 17px;&quot;&gt;&lt;b&gt;Admin&lt;/b&gt;&lt;/span&gt;" style="text;html=1;align=left;verticalAlign=middle;whiteSpace=wrap;rounded=0;" vertex="1" parent="ztK6fYnErQ94AF5k2fzQ-208">
          <mxGeometry width="110" height="21" as="geometry" />
        </mxCell>
        <mxCell id="ztK6fYnErQ94AF5k2fzQ-211" value="" style="group" connectable="0" vertex="1" parent="1">
          <mxGeometry x="76" y="3631" width="120" height="81" as="geometry" />
        </mxCell>
        <mxCell id="ztK6fYnErQ94AF5k2fzQ-212" value="Is_Memeber" style="rounded=0;whiteSpace=wrap;html=1;" vertex="1" parent="ztK6fYnErQ94AF5k2fzQ-211">
          <mxGeometry y="21" width="120" height="60" as="geometry" />
        </mxCell>
        <mxCell id="ztK6fYnErQ94AF5k2fzQ-213" value="&lt;b&gt;&lt;font style=&quot;font-size: 17px;&quot;&gt;Customer&lt;/font&gt;&lt;/b&gt;" style="text;html=1;align=left;verticalAlign=middle;whiteSpace=wrap;rounded=0;" vertex="1" parent="ztK6fYnErQ94AF5k2fzQ-211">
          <mxGeometry width="110" height="21" as="geometry" />
        </mxCell>
        <mxCell id="ztK6fYnErQ94AF5k2fzQ-214" value="&lt;b&gt;&lt;font style=&quot;font-size: 30px;&quot;&gt;Step 3: 1-to-1 relationships: User-Wishlist&lt;/font&gt;&lt;/b&gt;" style="text;html=1;align=center;verticalAlign=middle;whiteSpace=wrap;rounded=0;" vertex="1" parent="1">
          <mxGeometry x="49" y="2573" width="660" height="30" as="geometry" />
        </mxCell>
        <mxCell id="ztK6fYnErQ94AF5k2fzQ-215" value="" style="group" connectable="0" vertex="1" parent="1">
          <mxGeometry x="76" y="3748" width="360" height="81" as="geometry" />
        </mxCell>
        <mxCell id="ztK6fYnErQ94AF5k2fzQ-216" value="&lt;u&gt;User_ID&lt;/u&gt;" style="rounded=0;whiteSpace=wrap;html=1;" vertex="1" parent="ztK6fYnErQ94AF5k2fzQ-215">
          <mxGeometry y="21" width="120" height="60" as="geometry" />
        </mxCell>
        <mxCell id="ztK6fYnErQ94AF5k2fzQ-217" value="&lt;u&gt;Product_ID&lt;/u&gt;" style="rounded=0;whiteSpace=wrap;html=1;" vertex="1" parent="ztK6fYnErQ94AF5k2fzQ-215">
          <mxGeometry x="120" y="21" width="120" height="60" as="geometry" />
        </mxCell>
        <mxCell id="ztK6fYnErQ94AF5k2fzQ-218" value="Date_Added" style="rounded=0;whiteSpace=wrap;html=1;" vertex="1" parent="ztK6fYnErQ94AF5k2fzQ-215">
          <mxGeometry x="240" y="21" width="120" height="60" as="geometry" />
        </mxCell>
        <mxCell id="ztK6fYnErQ94AF5k2fzQ-219" value="&lt;span style=&quot;font-size: 17px;&quot;&gt;&lt;b&gt;Wishlist&lt;/b&gt;&lt;/span&gt;" style="text;html=1;align=left;verticalAlign=middle;whiteSpace=wrap;rounded=0;" vertex="1" parent="ztK6fYnErQ94AF5k2fzQ-215">
          <mxGeometry width="110" height="21" as="geometry" />
        </mxCell>
        <mxCell id="ztK6fYnErQ94AF5k2fzQ-220" style="edgeStyle=orthogonalEdgeStyle;rounded=0;orthogonalLoop=1;jettySize=auto;html=1;fontSize=12;startSize=8;endSize=8;exitX=0.5;exitY=1;exitDx=0;exitDy=0;entryX=0.051;entryY=1.011;entryDx=0;entryDy=0;elbow=vertical;entryPerimeter=0;" edge="1" parent="1" source="ztK6fYnErQ94AF5k2fzQ-216" target="ztK6fYnErQ94AF5k2fzQ-200">
          <mxGeometry relative="1" as="geometry">
            <mxPoint x="102.4249153137207" y="4085.6000061035156" as="targetPoint" />
            <Array as="points">
              <mxPoint x="136" y="3852" />
              <mxPoint x="946" y="3852" />
              <mxPoint x="946" y="2749" />
              <mxPoint x="83" y="2749" />
            </Array>
          </mxGeometry>
        </mxCell>
        <mxCell id="ztK6fYnErQ94AF5k2fzQ-221" style="edgeStyle=orthogonalEdgeStyle;rounded=0;orthogonalLoop=1;jettySize=auto;html=1;fontSize=12;startSize=8;endSize=8;entryX=0.084;entryY=0.994;entryDx=0;entryDy=0;entryPerimeter=0;exitX=0.5;exitY=1;exitDx=0;exitDy=0;" edge="1" parent="1" source="ztK6fYnErQ94AF5k2fzQ-217" target="ztK6fYnErQ94AF5k2fzQ-170">
          <mxGeometry relative="1" as="geometry">
            <mxPoint x="256" y="3883.56005859375" as="targetPoint" />
            <Array as="points">
              <mxPoint x="256" y="3842" />
              <mxPoint x="577" y="3842" />
              <mxPoint x="577" y="3078" />
              <mxPoint x="88" y="3078" />
            </Array>
          </mxGeometry>
        </mxCell>
        <mxCell id="ztK6fYnErQ94AF5k2fzQ-222" value="" style="group" connectable="0" vertex="1" parent="1">
          <mxGeometry x="84" y="4222" width="841" height="86" as="geometry" />
        </mxCell>
        <mxCell id="ztK6fYnErQ94AF5k2fzQ-223" value="&lt;u&gt;Review_ID&lt;/u&gt;" style="rounded=0;whiteSpace=wrap;html=1;" vertex="1" parent="ztK6fYnErQ94AF5k2fzQ-222">
          <mxGeometry x="3" y="26" width="120" height="60" as="geometry" />
        </mxCell>
        <mxCell id="ztK6fYnErQ94AF5k2fzQ-224" value="Rating" style="rounded=0;whiteSpace=wrap;html=1;" vertex="1" parent="ztK6fYnErQ94AF5k2fzQ-222">
          <mxGeometry x="123" y="26" width="120" height="60" as="geometry" />
        </mxCell>
        <mxCell id="ztK6fYnErQ94AF5k2fzQ-225" value="Retailer_ID" style="rounded=0;whiteSpace=wrap;html=1;" vertex="1" parent="ztK6fYnErQ94AF5k2fzQ-222">
          <mxGeometry x="243" y="26" width="120" height="60" as="geometry" />
        </mxCell>
        <mxCell id="ztK6fYnErQ94AF5k2fzQ-226" value="Product_ID" style="rounded=0;whiteSpace=wrap;html=1;" vertex="1" parent="ztK6fYnErQ94AF5k2fzQ-222">
          <mxGeometry x="363" y="26" width="120" height="60" as="geometry" />
        </mxCell>
        <mxCell id="ztK6fYnErQ94AF5k2fzQ-227" value="Comment" style="rounded=0;whiteSpace=wrap;html=1;" vertex="1" parent="ztK6fYnErQ94AF5k2fzQ-222">
          <mxGeometry x="483" y="26" width="120" height="60" as="geometry" />
        </mxCell>
        <mxCell id="ztK6fYnErQ94AF5k2fzQ-228" value="User_ID" style="rounded=0;whiteSpace=wrap;html=1;" vertex="1" parent="ztK6fYnErQ94AF5k2fzQ-222">
          <mxGeometry x="603" y="26" width="120" height="60" as="geometry" />
        </mxCell>
        <mxCell id="ztK6fYnErQ94AF5k2fzQ-229" value="Review_Date" style="rounded=0;whiteSpace=wrap;html=1;" vertex="1" parent="ztK6fYnErQ94AF5k2fzQ-222">
          <mxGeometry x="721" y="26" width="120" height="60" as="geometry" />
        </mxCell>
        <mxCell id="ztK6fYnErQ94AF5k2fzQ-230" value="&lt;span style=&quot;font-size: 17px;&quot;&gt;&lt;b&gt;Review&lt;/b&gt;&lt;/span&gt;" style="text;html=1;align=left;verticalAlign=middle;whiteSpace=wrap;rounded=0;" vertex="1" parent="ztK6fYnErQ94AF5k2fzQ-222">
          <mxGeometry width="110" height="21" as="geometry" />
        </mxCell>
        <mxCell id="ztK6fYnErQ94AF5k2fzQ-231" value="" style="group" connectable="0" vertex="1" parent="1">
          <mxGeometry x="87" y="4333" width="480" height="85" as="geometry" />
        </mxCell>
        <mxCell id="ztK6fYnErQ94AF5k2fzQ-232" value="&lt;u&gt;Retailer_ID&lt;/u&gt;" style="rounded=0;whiteSpace=wrap;html=1;" vertex="1" parent="ztK6fYnErQ94AF5k2fzQ-231">
          <mxGeometry y="25" width="120" height="60" as="geometry" />
        </mxCell>
        <mxCell id="ztK6fYnErQ94AF5k2fzQ-233" value="Name" style="rounded=0;whiteSpace=wrap;html=1;" vertex="1" parent="ztK6fYnErQ94AF5k2fzQ-231">
          <mxGeometry x="120" y="25" width="120" height="60" as="geometry" />
        </mxCell>
        <mxCell id="ztK6fYnErQ94AF5k2fzQ-234" value="Website" style="rounded=0;whiteSpace=wrap;html=1;" vertex="1" parent="ztK6fYnErQ94AF5k2fzQ-231">
          <mxGeometry x="240" y="25" width="120" height="60" as="geometry" />
        </mxCell>
        <mxCell id="ztK6fYnErQ94AF5k2fzQ-235" value="Logo_URL" style="rounded=0;whiteSpace=wrap;html=1;" vertex="1" parent="ztK6fYnErQ94AF5k2fzQ-231">
          <mxGeometry x="360" y="25" width="120" height="60" as="geometry" />
        </mxCell>
        <mxCell id="ztK6fYnErQ94AF5k2fzQ-236" value="&lt;span style=&quot;font-size: 17px;&quot;&gt;&lt;b&gt;Retailer&lt;/b&gt;&lt;/span&gt;" style="text;html=1;align=left;verticalAlign=middle;whiteSpace=wrap;rounded=0;" vertex="1" parent="ztK6fYnErQ94AF5k2fzQ-231">
          <mxGeometry x="-7" width="110" height="21" as="geometry" />
        </mxCell>
        <mxCell id="ztK6fYnErQ94AF5k2fzQ-237" value="" style="group" connectable="0" vertex="1" parent="1">
          <mxGeometry x="87" y="4447" width="838" height="85" as="geometry" />
        </mxCell>
        <mxCell id="ztK6fYnErQ94AF5k2fzQ-238" value="&lt;u&gt;Product_ID&lt;/u&gt;" style="rounded=0;whiteSpace=wrap;html=1;" vertex="1" parent="ztK6fYnErQ94AF5k2fzQ-237">
          <mxGeometry y="25" width="120" height="60" as="geometry" />
        </mxCell>
        <mxCell id="ztK6fYnErQ94AF5k2fzQ-239" value="Brand_ID" style="rounded=0;whiteSpace=wrap;html=1;" vertex="1" parent="ztK6fYnErQ94AF5k2fzQ-237">
          <mxGeometry x="120" y="25" width="120" height="60" as="geometry" />
        </mxCell>
        <mxCell id="ztK6fYnErQ94AF5k2fzQ-240" value="Category_ID" style="rounded=0;whiteSpace=wrap;html=1;" vertex="1" parent="ztK6fYnErQ94AF5k2fzQ-237">
          <mxGeometry x="240" y="25" width="120" height="60" as="geometry" />
        </mxCell>
        <mxCell id="ztK6fYnErQ94AF5k2fzQ-241" value="Name" style="rounded=0;whiteSpace=wrap;html=1;" vertex="1" parent="ztK6fYnErQ94AF5k2fzQ-237">
          <mxGeometry x="360" y="25" width="120" height="60" as="geometry" />
        </mxCell>
        <mxCell id="ztK6fYnErQ94AF5k2fzQ-242" value="Description" style="rounded=0;whiteSpace=wrap;html=1;" vertex="1" parent="ztK6fYnErQ94AF5k2fzQ-237">
          <mxGeometry x="480" y="25" width="120" height="60" as="geometry" />
        </mxCell>
        <mxCell id="ztK6fYnErQ94AF5k2fzQ-243" value="Specifications" style="rounded=0;whiteSpace=wrap;html=1;" vertex="1" parent="ztK6fYnErQ94AF5k2fzQ-237">
          <mxGeometry x="600" y="25" width="120" height="60" as="geometry" />
        </mxCell>
        <mxCell id="ztK6fYnErQ94AF5k2fzQ-244" value="Review_Date" style="rounded=0;whiteSpace=wrap;html=1;" vertex="1" parent="ztK6fYnErQ94AF5k2fzQ-237">
          <mxGeometry x="718" y="25" width="120" height="60" as="geometry" />
        </mxCell>
        <mxCell id="ztK6fYnErQ94AF5k2fzQ-245" value="&lt;span style=&quot;font-size: 17px;&quot;&gt;&lt;b&gt;Product&lt;/b&gt;&lt;/span&gt;" style="text;html=1;align=left;verticalAlign=middle;whiteSpace=wrap;rounded=0;" vertex="1" parent="ztK6fYnErQ94AF5k2fzQ-237">
          <mxGeometry width="110" height="21" as="geometry" />
        </mxCell>
        <mxCell id="ztK6fYnErQ94AF5k2fzQ-246" value="" style="group" connectable="0" vertex="1" parent="1">
          <mxGeometry x="89" y="4574" width="480" height="81" as="geometry" />
        </mxCell>
        <mxCell id="ztK6fYnErQ94AF5k2fzQ-247" value="&lt;u&gt;Image_ID&lt;/u&gt;" style="rounded=0;whiteSpace=wrap;html=1;" vertex="1" parent="ztK6fYnErQ94AF5k2fzQ-246">
          <mxGeometry y="21" width="120" height="60" as="geometry" />
        </mxCell>
        <mxCell id="ztK6fYnErQ94AF5k2fzQ-248" value="Product_ID" style="rounded=0;whiteSpace=wrap;html=1;" vertex="1" parent="ztK6fYnErQ94AF5k2fzQ-246">
          <mxGeometry x="120" y="21" width="120" height="60" as="geometry" />
        </mxCell>
        <mxCell id="ztK6fYnErQ94AF5k2fzQ-249" value="Image_URL" style="rounded=0;whiteSpace=wrap;html=1;" vertex="1" parent="ztK6fYnErQ94AF5k2fzQ-246">
          <mxGeometry x="240" y="21" width="120" height="60" as="geometry" />
        </mxCell>
        <mxCell id="ztK6fYnErQ94AF5k2fzQ-250" value="Caption" style="rounded=0;whiteSpace=wrap;html=1;" vertex="1" parent="ztK6fYnErQ94AF5k2fzQ-246">
          <mxGeometry x="360" y="21" width="120" height="60" as="geometry" />
        </mxCell>
        <mxCell id="ztK6fYnErQ94AF5k2fzQ-251" value="&lt;span style=&quot;font-size: 17px;&quot;&gt;&lt;b&gt;Images&lt;/b&gt;&lt;/span&gt;" style="text;html=1;align=left;verticalAlign=middle;whiteSpace=wrap;rounded=0;" vertex="1" parent="ztK6fYnErQ94AF5k2fzQ-246">
          <mxGeometry x="3" width="110" height="21" as="geometry" />
        </mxCell>
        <mxCell id="ztK6fYnErQ94AF5k2fzQ-252" value="" style="group" connectable="0" vertex="1" parent="1">
          <mxGeometry x="92" y="4673" width="360" height="81" as="geometry" />
        </mxCell>
        <mxCell id="ztK6fYnErQ94AF5k2fzQ-253" value="&lt;u&gt;Category_ID&lt;/u&gt;" style="rounded=0;whiteSpace=wrap;html=1;" vertex="1" parent="ztK6fYnErQ94AF5k2fzQ-252">
          <mxGeometry y="21" width="120" height="60" as="geometry" />
        </mxCell>
        <mxCell id="ztK6fYnErQ94AF5k2fzQ-254" value="Name" style="rounded=0;whiteSpace=wrap;html=1;" vertex="1" parent="ztK6fYnErQ94AF5k2fzQ-252">
          <mxGeometry x="120" y="21" width="120" height="60" as="geometry" />
        </mxCell>
        <mxCell id="ztK6fYnErQ94AF5k2fzQ-255" value="Parent_Category" style="rounded=0;whiteSpace=wrap;html=1;" vertex="1" parent="ztK6fYnErQ94AF5k2fzQ-252">
          <mxGeometry x="240" y="21" width="120" height="60" as="geometry" />
        </mxCell>
        <mxCell id="ztK6fYnErQ94AF5k2fzQ-256" value="&lt;b&gt;&lt;font style=&quot;font-size: 17px;&quot;&gt;Category&lt;/font&gt;&lt;/b&gt;" style="text;html=1;align=left;verticalAlign=middle;whiteSpace=wrap;rounded=0;" vertex="1" parent="ztK6fYnErQ94AF5k2fzQ-252">
          <mxGeometry width="110" height="21" as="geometry" />
        </mxCell>
        <mxCell id="ztK6fYnErQ94AF5k2fzQ-257" value="" style="group" connectable="0" vertex="1" parent="1">
          <mxGeometry x="87" y="4772" width="360" height="81" as="geometry" />
        </mxCell>
        <mxCell id="ztK6fYnErQ94AF5k2fzQ-258" value="&lt;u&gt;Brand_ID&lt;/u&gt;" style="rounded=0;whiteSpace=wrap;html=1;" vertex="1" parent="ztK6fYnErQ94AF5k2fzQ-257">
          <mxGeometry y="21" width="120" height="60" as="geometry" />
        </mxCell>
        <mxCell id="ztK6fYnErQ94AF5k2fzQ-259" value="Name" style="rounded=0;whiteSpace=wrap;html=1;" vertex="1" parent="ztK6fYnErQ94AF5k2fzQ-257">
          <mxGeometry x="120" y="21" width="120" height="60" as="geometry" />
        </mxCell>
        <mxCell id="ztK6fYnErQ94AF5k2fzQ-260" value="&lt;b&gt;&lt;font style=&quot;font-size: 17px;&quot;&gt;Brand&lt;/font&gt;&lt;/b&gt;" style="text;html=1;align=left;verticalAlign=middle;whiteSpace=wrap;rounded=0;" vertex="1" parent="ztK6fYnErQ94AF5k2fzQ-257">
          <mxGeometry width="110" height="21" as="geometry" />
        </mxCell>
        <mxCell id="ztK6fYnErQ94AF5k2fzQ-261" value="" style="group" connectable="0" vertex="1" parent="1">
          <mxGeometry x="82" y="4110" width="963" height="84" as="geometry" />
        </mxCell>
        <mxCell id="ztK6fYnErQ94AF5k2fzQ-262" value="Date_created" style="rounded=0;whiteSpace=wrap;html=1;" vertex="1" parent="ztK6fYnErQ94AF5k2fzQ-261">
          <mxGeometry x="843" y="24" width="120" height="60" as="geometry" />
        </mxCell>
        <mxCell id="ztK6fYnErQ94AF5k2fzQ-263" value="Hashed_Password" style="rounded=0;whiteSpace=wrap;html=1;" vertex="1" parent="ztK6fYnErQ94AF5k2fzQ-261">
          <mxGeometry x="603" y="24" width="120" height="60" as="geometry" />
        </mxCell>
        <mxCell id="ztK6fYnErQ94AF5k2fzQ-264" value="Salt" style="rounded=0;whiteSpace=wrap;html=1;" vertex="1" parent="ztK6fYnErQ94AF5k2fzQ-261">
          <mxGeometry x="723" y="24" width="120" height="60" as="geometry" />
        </mxCell>
        <mxCell id="ztK6fYnErQ94AF5k2fzQ-265" value="First_name" style="rounded=0;whiteSpace=wrap;html=1;" vertex="1" parent="ztK6fYnErQ94AF5k2fzQ-261">
          <mxGeometry x="123" y="24" width="120" height="60" as="geometry" />
        </mxCell>
        <mxCell id="ztK6fYnErQ94AF5k2fzQ-266" value="Last_name" style="rounded=0;whiteSpace=wrap;html=1;" vertex="1" parent="ztK6fYnErQ94AF5k2fzQ-261">
          <mxGeometry x="243" y="24" width="120" height="60" as="geometry" />
        </mxCell>
        <mxCell id="ztK6fYnErQ94AF5k2fzQ-267" value="Username" style="rounded=0;whiteSpace=wrap;html=1;" vertex="1" parent="ztK6fYnErQ94AF5k2fzQ-261">
          <mxGeometry x="363" y="24" width="120" height="60" as="geometry" />
        </mxCell>
        <mxCell id="ztK6fYnErQ94AF5k2fzQ-268" value="&lt;u&gt;User_ID&lt;/u&gt;" style="rounded=0;whiteSpace=wrap;html=1;" vertex="1" parent="ztK6fYnErQ94AF5k2fzQ-261">
          <mxGeometry x="3" y="24" width="120" height="60" as="geometry" />
        </mxCell>
        <mxCell id="ztK6fYnErQ94AF5k2fzQ-269" value="Email" style="rounded=0;whiteSpace=wrap;html=1;" vertex="1" parent="ztK6fYnErQ94AF5k2fzQ-261">
          <mxGeometry x="483" y="24" width="120" height="60" as="geometry" />
        </mxCell>
        <mxCell id="ztK6fYnErQ94AF5k2fzQ-270" value="&lt;b&gt;&lt;font style=&quot;font-size: 17px;&quot;&gt;User&lt;/font&gt;&lt;/b&gt;" style="text;html=1;align=left;verticalAlign=middle;whiteSpace=wrap;rounded=0;" vertex="1" parent="ztK6fYnErQ94AF5k2fzQ-261">
          <mxGeometry width="110" height="21" as="geometry" />
        </mxCell>
        <mxCell id="ztK6fYnErQ94AF5k2fzQ-271" value="" style="group" connectable="0" vertex="1" parent="1">
          <mxGeometry x="89" y="4883" width="360" height="81" as="geometry" />
        </mxCell>
        <mxCell id="ztK6fYnErQ94AF5k2fzQ-272" value="&lt;u&gt;Privilege_ID&lt;/u&gt;" style="rounded=0;whiteSpace=wrap;html=1;" vertex="1" parent="ztK6fYnErQ94AF5k2fzQ-271">
          <mxGeometry y="21" width="120" height="60" as="geometry" />
        </mxCell>
        <mxCell id="ztK6fYnErQ94AF5k2fzQ-273" value="Privilege_Name" style="rounded=0;whiteSpace=wrap;html=1;" vertex="1" parent="ztK6fYnErQ94AF5k2fzQ-271">
          <mxGeometry x="120" y="21" width="120" height="60" as="geometry" />
        </mxCell>
        <mxCell id="ztK6fYnErQ94AF5k2fzQ-274" value="Description" style="rounded=0;whiteSpace=wrap;html=1;" vertex="1" parent="ztK6fYnErQ94AF5k2fzQ-271">
          <mxGeometry x="240" y="21" width="120" height="60" as="geometry" />
        </mxCell>
        <mxCell id="ztK6fYnErQ94AF5k2fzQ-275" value="&lt;span style=&quot;font-size: 17px;&quot;&gt;&lt;b&gt;Privileges&lt;/b&gt;&lt;/span&gt;" style="text;html=1;align=left;verticalAlign=middle;whiteSpace=wrap;rounded=0;" vertex="1" parent="ztK6fYnErQ94AF5k2fzQ-271">
          <mxGeometry width="110" height="21" as="geometry" />
        </mxCell>
        <mxCell id="ztK6fYnErQ94AF5k2fzQ-276" value="" style="group" connectable="0" vertex="1" parent="1">
          <mxGeometry x="87" y="5004" width="120" height="81" as="geometry" />
        </mxCell>
        <mxCell id="ztK6fYnErQ94AF5k2fzQ-277" value="Privilege_ID" style="rounded=0;whiteSpace=wrap;html=1;" vertex="1" parent="ztK6fYnErQ94AF5k2fzQ-276">
          <mxGeometry y="21" width="120" height="60" as="geometry" />
        </mxCell>
        <mxCell id="ztK6fYnErQ94AF5k2fzQ-278" value="&lt;span style=&quot;font-size: 17px;&quot;&gt;&lt;b&gt;Admin&lt;/b&gt;&lt;/span&gt;" style="text;html=1;align=left;verticalAlign=middle;whiteSpace=wrap;rounded=0;" vertex="1" parent="ztK6fYnErQ94AF5k2fzQ-276">
          <mxGeometry width="110" height="21" as="geometry" />
        </mxCell>
        <mxCell id="ztK6fYnErQ94AF5k2fzQ-279" value="" style="group" connectable="0" vertex="1" parent="1">
          <mxGeometry x="87" y="5121" width="120" height="81" as="geometry" />
        </mxCell>
        <mxCell id="ztK6fYnErQ94AF5k2fzQ-280" value="Is_Memeber" style="rounded=0;whiteSpace=wrap;html=1;" vertex="1" parent="ztK6fYnErQ94AF5k2fzQ-279">
          <mxGeometry y="21" width="120" height="60" as="geometry" />
        </mxCell>
        <mxCell id="ztK6fYnErQ94AF5k2fzQ-281" value="&lt;b&gt;&lt;font style=&quot;font-size: 17px;&quot;&gt;Customer&lt;/font&gt;&lt;/b&gt;" style="text;html=1;align=left;verticalAlign=middle;whiteSpace=wrap;rounded=0;" vertex="1" parent="ztK6fYnErQ94AF5k2fzQ-279">
          <mxGeometry width="110" height="21" as="geometry" />
        </mxCell>
        <mxCell id="ztK6fYnErQ94AF5k2fzQ-282" value="&lt;b&gt;&lt;font style=&quot;font-size: 30px;&quot;&gt;Step 4: 1-to-N relationships: User-Review, Product-Review,&amp;nbsp;&lt;/font&gt;&lt;/b&gt;&lt;div&gt;&lt;b&gt;&lt;font style=&quot;font-size: 30px;&quot;&gt;Product-Images,&amp;nbsp;&lt;/font&gt;&lt;/b&gt;&lt;b style=&quot;background-color: transparent; color: light-dark(rgb(0, 0, 0), rgb(255, 255, 255));&quot;&gt;&lt;font style=&quot;font-size: 30px;&quot;&gt;Product-Brand and Admin-Privilleges&lt;/font&gt;&lt;/b&gt;&lt;/div&gt;" style="text;html=1;align=center;verticalAlign=middle;whiteSpace=wrap;rounded=0;" vertex="1" parent="1">
          <mxGeometry x="60" y="4028" width="908" height="62" as="geometry" />
        </mxCell>
        <mxCell id="ztK6fYnErQ94AF5k2fzQ-283" value="" style="group" connectable="0" vertex="1" parent="1">
          <mxGeometry x="87" y="5238" width="360" height="81" as="geometry" />
        </mxCell>
        <mxCell id="ztK6fYnErQ94AF5k2fzQ-284" value="&lt;u&gt;User_ID&lt;/u&gt;" style="rounded=0;whiteSpace=wrap;html=1;" vertex="1" parent="ztK6fYnErQ94AF5k2fzQ-283">
          <mxGeometry y="21" width="120" height="60" as="geometry" />
        </mxCell>
        <mxCell id="ztK6fYnErQ94AF5k2fzQ-285" value="&lt;u&gt;Product_ID&lt;/u&gt;" style="rounded=0;whiteSpace=wrap;html=1;" vertex="1" parent="ztK6fYnErQ94AF5k2fzQ-283">
          <mxGeometry x="120" y="21" width="120" height="60" as="geometry" />
        </mxCell>
        <mxCell id="ztK6fYnErQ94AF5k2fzQ-286" value="Date_Added" style="rounded=0;whiteSpace=wrap;html=1;" vertex="1" parent="ztK6fYnErQ94AF5k2fzQ-283">
          <mxGeometry x="240" y="21" width="120" height="60" as="geometry" />
        </mxCell>
        <mxCell id="ztK6fYnErQ94AF5k2fzQ-287" value="&lt;span style=&quot;font-size: 17px;&quot;&gt;&lt;b&gt;Wishlist&lt;/b&gt;&lt;/span&gt;" style="text;html=1;align=left;verticalAlign=middle;whiteSpace=wrap;rounded=0;" vertex="1" parent="ztK6fYnErQ94AF5k2fzQ-283">
          <mxGeometry width="110" height="21" as="geometry" />
        </mxCell>
        <mxCell id="ztK6fYnErQ94AF5k2fzQ-288" style="edgeStyle=orthogonalEdgeStyle;rounded=0;orthogonalLoop=1;jettySize=auto;html=1;fontSize=12;startSize=8;endSize=8;exitX=0.5;exitY=1;exitDx=0;exitDy=0;entryX=0.25;entryY=1;entryDx=0;entryDy=0;elbow=vertical;" edge="1" parent="1" source="ztK6fYnErQ94AF5k2fzQ-284" target="ztK6fYnErQ94AF5k2fzQ-268">
          <mxGeometry relative="1" as="geometry">
            <mxPoint x="111.4249153137207" y="5557.600006103516" as="targetPoint" />
            <Array as="points">
              <mxPoint x="145" y="5319" />
              <mxPoint x="145" y="5357" />
              <mxPoint x="1012" y="5357" />
              <mxPoint x="1012" y="4209" />
              <mxPoint x="115" y="4209" />
            </Array>
          </mxGeometry>
        </mxCell>
        <mxCell id="ztK6fYnErQ94AF5k2fzQ-289" style="edgeStyle=orthogonalEdgeStyle;rounded=0;orthogonalLoop=1;jettySize=auto;html=1;fontSize=12;startSize=8;endSize=8;entryX=0.35;entryY=1.004;entryDx=0;entryDy=0;entryPerimeter=0;exitX=0.5;exitY=1;exitDx=0;exitDy=0;" edge="1" parent="1" source="ztK6fYnErQ94AF5k2fzQ-285" target="ztK6fYnErQ94AF5k2fzQ-238">
          <mxGeometry relative="1" as="geometry">
            <mxPoint x="265" y="5355.56005859375" as="targetPoint" />
            <Array as="points">
              <mxPoint x="265" y="5319" />
              <mxPoint x="265" y="5340" />
              <mxPoint x="613" y="5340" />
              <mxPoint x="613" y="4562" />
              <mxPoint x="129" y="4562" />
            </Array>
          </mxGeometry>
        </mxCell>
        <mxCell id="ztK6fYnErQ94AF5k2fzQ-290" style="edgeStyle=orthogonalEdgeStyle;rounded=0;orthogonalLoop=1;jettySize=auto;html=1;fontSize=12;startSize=8;endSize=8;entryX=0.14;entryY=0.997;entryDx=0;entryDy=0;entryPerimeter=0;exitX=0.5;exitY=1;exitDx=0;exitDy=0;" edge="1" parent="1" source="ztK6fYnErQ94AF5k2fzQ-228" target="ztK6fYnErQ94AF5k2fzQ-268">
          <mxGeometry relative="1" as="geometry">
            <mxPoint x="106.25450827858663" y="4221.381724964488" as="targetPoint" />
            <Array as="points">
              <mxPoint x="747" y="4320" />
              <mxPoint x="944" y="4320" />
              <mxPoint x="944" y="4219" />
              <mxPoint x="102" y="4219" />
            </Array>
          </mxGeometry>
        </mxCell>
        <mxCell id="ztK6fYnErQ94AF5k2fzQ-291" style="edgeStyle=orthogonalEdgeStyle;rounded=0;orthogonalLoop=1;jettySize=auto;html=1;entryX=0.5;entryY=1;entryDx=0;entryDy=0;fontSize=12;startSize=8;endSize=8;exitX=0.5;exitY=1;exitDx=0;exitDy=0;" edge="1" parent="1" source="ztK6fYnErQ94AF5k2fzQ-225" target="ztK6fYnErQ94AF5k2fzQ-238">
          <mxGeometry relative="1" as="geometry">
            <Array as="points">
              <mxPoint x="387" y="4337" />
              <mxPoint x="959" y="4337" />
              <mxPoint x="959" y="4554" />
              <mxPoint x="147" y="4554" />
            </Array>
          </mxGeometry>
        </mxCell>
        <mxCell id="ztK6fYnErQ94AF5k2fzQ-292" style="edgeStyle=orthogonalEdgeStyle;rounded=0;orthogonalLoop=1;jettySize=auto;html=1;fontSize=12;startSize=8;endSize=8;exitX=0.5;exitY=1;exitDx=0;exitDy=0;entryX=0.166;entryY=1.004;entryDx=0;entryDy=0;entryPerimeter=0;" edge="1" parent="1" source="ztK6fYnErQ94AF5k2fzQ-248" target="ztK6fYnErQ94AF5k2fzQ-238">
          <mxGeometry relative="1" as="geometry">
            <mxPoint x="88" y="4552" as="targetPoint" />
            <Array as="points">
              <mxPoint x="267" y="4655" />
              <mxPoint x="267" y="4667" />
              <mxPoint x="577" y="4667" />
              <mxPoint x="577" y="4573" />
              <mxPoint x="107" y="4573" />
            </Array>
          </mxGeometry>
        </mxCell>
        <mxCell id="ztK6fYnErQ94AF5k2fzQ-293" style="edgeStyle=orthogonalEdgeStyle;rounded=0;orthogonalLoop=1;jettySize=auto;html=1;entryX=0.5;entryY=1;entryDx=0;entryDy=0;fontSize=12;startSize=8;endSize=8;exitX=0.5;exitY=1;exitDx=0;exitDy=0;" edge="1" parent="1" source="ztK6fYnErQ94AF5k2fzQ-258" target="ztK6fYnErQ94AF5k2fzQ-239">
          <mxGeometry relative="1" as="geometry">
            <Array as="points">
              <mxPoint x="145" y="4853" />
              <mxPoint x="145" y="4866" />
              <mxPoint x="629" y="4866" />
              <mxPoint x="629" y="4549" />
              <mxPoint x="267" y="4549" />
            </Array>
          </mxGeometry>
        </mxCell>
        <mxCell id="ztK6fYnErQ94AF5k2fzQ-294" style="edgeStyle=orthogonalEdgeStyle;rounded=0;orthogonalLoop=1;jettySize=auto;html=1;entryX=0.5;entryY=1;entryDx=0;entryDy=0;fontSize=12;startSize=8;endSize=8;" edge="1" parent="1" source="ztK6fYnErQ94AF5k2fzQ-277" target="ztK6fYnErQ94AF5k2fzQ-272">
          <mxGeometry relative="1" as="geometry">
            <Array as="points">
              <mxPoint x="147" y="5106" />
              <mxPoint x="233" y="5106" />
              <mxPoint x="233" y="4981" />
              <mxPoint x="149" y="4981" />
            </Array>
          </mxGeometry>
        </mxCell>
        <mxCell id="ztK6fYnErQ94AF5k2fzQ-295" value="" style="group" connectable="0" vertex="1" parent="1">
          <mxGeometry x="90" y="5680" width="841" height="86" as="geometry" />
        </mxCell>
        <mxCell id="ztK6fYnErQ94AF5k2fzQ-296" value="&lt;u&gt;Review_ID&lt;/u&gt;" style="rounded=0;whiteSpace=wrap;html=1;" vertex="1" parent="ztK6fYnErQ94AF5k2fzQ-295">
          <mxGeometry x="3" y="26" width="120" height="60" as="geometry" />
        </mxCell>
        <mxCell id="ztK6fYnErQ94AF5k2fzQ-297" value="Rating" style="rounded=0;whiteSpace=wrap;html=1;" vertex="1" parent="ztK6fYnErQ94AF5k2fzQ-295">
          <mxGeometry x="123" y="26" width="120" height="60" as="geometry" />
        </mxCell>
        <mxCell id="ztK6fYnErQ94AF5k2fzQ-298" value="Retailer_ID" style="rounded=0;whiteSpace=wrap;html=1;" vertex="1" parent="ztK6fYnErQ94AF5k2fzQ-295">
          <mxGeometry x="243" y="26" width="120" height="60" as="geometry" />
        </mxCell>
        <mxCell id="ztK6fYnErQ94AF5k2fzQ-299" value="Product_ID" style="rounded=0;whiteSpace=wrap;html=1;" vertex="1" parent="ztK6fYnErQ94AF5k2fzQ-295">
          <mxGeometry x="363" y="26" width="120" height="60" as="geometry" />
        </mxCell>
        <mxCell id="ztK6fYnErQ94AF5k2fzQ-300" value="Comment" style="rounded=0;whiteSpace=wrap;html=1;" vertex="1" parent="ztK6fYnErQ94AF5k2fzQ-295">
          <mxGeometry x="483" y="26" width="120" height="60" as="geometry" />
        </mxCell>
        <mxCell id="ztK6fYnErQ94AF5k2fzQ-301" value="User_ID" style="rounded=0;whiteSpace=wrap;html=1;" vertex="1" parent="ztK6fYnErQ94AF5k2fzQ-295">
          <mxGeometry x="603" y="26" width="120" height="60" as="geometry" />
        </mxCell>
        <mxCell id="ztK6fYnErQ94AF5k2fzQ-302" value="Review_Date" style="rounded=0;whiteSpace=wrap;html=1;" vertex="1" parent="ztK6fYnErQ94AF5k2fzQ-295">
          <mxGeometry x="721" y="26" width="120" height="60" as="geometry" />
        </mxCell>
        <mxCell id="ztK6fYnErQ94AF5k2fzQ-303" value="&lt;span style=&quot;font-size: 17px;&quot;&gt;&lt;b&gt;Review&lt;/b&gt;&lt;/span&gt;" style="text;html=1;align=left;verticalAlign=middle;whiteSpace=wrap;rounded=0;" vertex="1" parent="ztK6fYnErQ94AF5k2fzQ-295">
          <mxGeometry width="110" height="21" as="geometry" />
        </mxCell>
        <mxCell id="ztK6fYnErQ94AF5k2fzQ-304" value="" style="group" connectable="0" vertex="1" parent="1">
          <mxGeometry x="93" y="5791" width="480" height="85" as="geometry" />
        </mxCell>
        <mxCell id="ztK6fYnErQ94AF5k2fzQ-305" value="&lt;u&gt;Retailer_ID&lt;/u&gt;" style="rounded=0;whiteSpace=wrap;html=1;" vertex="1" parent="ztK6fYnErQ94AF5k2fzQ-304">
          <mxGeometry y="25" width="120" height="60" as="geometry" />
        </mxCell>
        <mxCell id="ztK6fYnErQ94AF5k2fzQ-306" value="Name" style="rounded=0;whiteSpace=wrap;html=1;" vertex="1" parent="ztK6fYnErQ94AF5k2fzQ-304">
          <mxGeometry x="120" y="25" width="120" height="60" as="geometry" />
        </mxCell>
        <mxCell id="ztK6fYnErQ94AF5k2fzQ-307" value="Website" style="rounded=0;whiteSpace=wrap;html=1;" vertex="1" parent="ztK6fYnErQ94AF5k2fzQ-304">
          <mxGeometry x="240" y="25" width="120" height="60" as="geometry" />
        </mxCell>
        <mxCell id="ztK6fYnErQ94AF5k2fzQ-308" value="Logo_URL" style="rounded=0;whiteSpace=wrap;html=1;" vertex="1" parent="ztK6fYnErQ94AF5k2fzQ-304">
          <mxGeometry x="360" y="25" width="120" height="60" as="geometry" />
        </mxCell>
        <mxCell id="ztK6fYnErQ94AF5k2fzQ-309" value="&lt;span style=&quot;font-size: 17px;&quot;&gt;&lt;b&gt;Retailer&lt;/b&gt;&lt;/span&gt;" style="text;html=1;align=left;verticalAlign=middle;whiteSpace=wrap;rounded=0;" vertex="1" parent="ztK6fYnErQ94AF5k2fzQ-304">
          <mxGeometry x="-7" width="110" height="21" as="geometry" />
        </mxCell>
        <mxCell id="ztK6fYnErQ94AF5k2fzQ-310" value="" style="group" connectable="0" vertex="1" parent="1">
          <mxGeometry x="93" y="5905" width="838" height="85" as="geometry" />
        </mxCell>
        <mxCell id="ztK6fYnErQ94AF5k2fzQ-311" value="&lt;u&gt;Product_ID&lt;/u&gt;" style="rounded=0;whiteSpace=wrap;html=1;" vertex="1" parent="ztK6fYnErQ94AF5k2fzQ-310">
          <mxGeometry y="25" width="120" height="60" as="geometry" />
        </mxCell>
        <mxCell id="ztK6fYnErQ94AF5k2fzQ-312" value="Brand_ID" style="rounded=0;whiteSpace=wrap;html=1;" vertex="1" parent="ztK6fYnErQ94AF5k2fzQ-310">
          <mxGeometry x="120" y="25" width="120" height="60" as="geometry" />
        </mxCell>
        <mxCell id="ztK6fYnErQ94AF5k2fzQ-313" value="Category_ID" style="rounded=0;whiteSpace=wrap;html=1;" vertex="1" parent="ztK6fYnErQ94AF5k2fzQ-310">
          <mxGeometry x="240" y="25" width="120" height="60" as="geometry" />
        </mxCell>
        <mxCell id="ztK6fYnErQ94AF5k2fzQ-314" value="Name" style="rounded=0;whiteSpace=wrap;html=1;" vertex="1" parent="ztK6fYnErQ94AF5k2fzQ-310">
          <mxGeometry x="360" y="25" width="120" height="60" as="geometry" />
        </mxCell>
        <mxCell id="ztK6fYnErQ94AF5k2fzQ-315" value="Description" style="rounded=0;whiteSpace=wrap;html=1;" vertex="1" parent="ztK6fYnErQ94AF5k2fzQ-310">
          <mxGeometry x="480" y="25" width="120" height="60" as="geometry" />
        </mxCell>
        <mxCell id="ztK6fYnErQ94AF5k2fzQ-316" value="Specifications" style="rounded=0;whiteSpace=wrap;html=1;" vertex="1" parent="ztK6fYnErQ94AF5k2fzQ-310">
          <mxGeometry x="600" y="25" width="120" height="60" as="geometry" />
        </mxCell>
        <mxCell id="ztK6fYnErQ94AF5k2fzQ-317" value="Review_Date" style="rounded=0;whiteSpace=wrap;html=1;" vertex="1" parent="ztK6fYnErQ94AF5k2fzQ-310">
          <mxGeometry x="718" y="25" width="120" height="60" as="geometry" />
        </mxCell>
        <mxCell id="ztK6fYnErQ94AF5k2fzQ-318" value="&lt;span style=&quot;font-size: 17px;&quot;&gt;&lt;b&gt;Product&lt;/b&gt;&lt;/span&gt;" style="text;html=1;align=left;verticalAlign=middle;whiteSpace=wrap;rounded=0;" vertex="1" parent="ztK6fYnErQ94AF5k2fzQ-310">
          <mxGeometry width="110" height="21" as="geometry" />
        </mxCell>
        <mxCell id="ztK6fYnErQ94AF5k2fzQ-319" value="" style="group" connectable="0" vertex="1" parent="1">
          <mxGeometry x="98" y="6084" width="480" height="81" as="geometry" />
        </mxCell>
        <mxCell id="ztK6fYnErQ94AF5k2fzQ-320" value="&lt;u&gt;Image_ID&lt;/u&gt;" style="rounded=0;whiteSpace=wrap;html=1;" vertex="1" parent="ztK6fYnErQ94AF5k2fzQ-319">
          <mxGeometry y="21" width="120" height="60" as="geometry" />
        </mxCell>
        <mxCell id="ztK6fYnErQ94AF5k2fzQ-321" value="Product_ID" style="rounded=0;whiteSpace=wrap;html=1;" vertex="1" parent="ztK6fYnErQ94AF5k2fzQ-319">
          <mxGeometry x="120" y="21" width="120" height="60" as="geometry" />
        </mxCell>
        <mxCell id="ztK6fYnErQ94AF5k2fzQ-322" value="Image_URL" style="rounded=0;whiteSpace=wrap;html=1;" vertex="1" parent="ztK6fYnErQ94AF5k2fzQ-319">
          <mxGeometry x="240" y="21" width="120" height="60" as="geometry" />
        </mxCell>
        <mxCell id="ztK6fYnErQ94AF5k2fzQ-323" value="Caption" style="rounded=0;whiteSpace=wrap;html=1;" vertex="1" parent="ztK6fYnErQ94AF5k2fzQ-319">
          <mxGeometry x="360" y="21" width="120" height="60" as="geometry" />
        </mxCell>
        <mxCell id="ztK6fYnErQ94AF5k2fzQ-324" value="&lt;span style=&quot;font-size: 17px;&quot;&gt;&lt;b&gt;Images&lt;/b&gt;&lt;/span&gt;" style="text;html=1;align=left;verticalAlign=middle;whiteSpace=wrap;rounded=0;" vertex="1" parent="ztK6fYnErQ94AF5k2fzQ-319">
          <mxGeometry x="3" width="110" height="21" as="geometry" />
        </mxCell>
        <mxCell id="ztK6fYnErQ94AF5k2fzQ-325" value="" style="group" connectable="0" vertex="1" parent="1">
          <mxGeometry x="101" y="6183" width="360" height="81" as="geometry" />
        </mxCell>
        <mxCell id="ztK6fYnErQ94AF5k2fzQ-326" value="&lt;u&gt;Category_ID&lt;/u&gt;" style="rounded=0;whiteSpace=wrap;html=1;" vertex="1" parent="ztK6fYnErQ94AF5k2fzQ-325">
          <mxGeometry y="21" width="120" height="60" as="geometry" />
        </mxCell>
        <mxCell id="ztK6fYnErQ94AF5k2fzQ-327" value="Name" style="rounded=0;whiteSpace=wrap;html=1;" vertex="1" parent="ztK6fYnErQ94AF5k2fzQ-325">
          <mxGeometry x="120" y="21" width="120" height="60" as="geometry" />
        </mxCell>
        <mxCell id="ztK6fYnErQ94AF5k2fzQ-328" value="Parent_Category" style="rounded=0;whiteSpace=wrap;html=1;" vertex="1" parent="ztK6fYnErQ94AF5k2fzQ-325">
          <mxGeometry x="240" y="21" width="120" height="60" as="geometry" />
        </mxCell>
        <mxCell id="ztK6fYnErQ94AF5k2fzQ-329" value="&lt;b&gt;&lt;font style=&quot;font-size: 17px;&quot;&gt;Category&lt;/font&gt;&lt;/b&gt;" style="text;html=1;align=left;verticalAlign=middle;whiteSpace=wrap;rounded=0;" vertex="1" parent="ztK6fYnErQ94AF5k2fzQ-325">
          <mxGeometry width="110" height="21" as="geometry" />
        </mxCell>
        <mxCell id="ztK6fYnErQ94AF5k2fzQ-330" value="" style="group" connectable="0" vertex="1" parent="1">
          <mxGeometry x="96" y="6282" width="360" height="81" as="geometry" />
        </mxCell>
        <mxCell id="ztK6fYnErQ94AF5k2fzQ-331" value="&lt;u&gt;Brand_ID&lt;/u&gt;" style="rounded=0;whiteSpace=wrap;html=1;" vertex="1" parent="ztK6fYnErQ94AF5k2fzQ-330">
          <mxGeometry y="21" width="120" height="60" as="geometry" />
        </mxCell>
        <mxCell id="ztK6fYnErQ94AF5k2fzQ-332" value="Name" style="rounded=0;whiteSpace=wrap;html=1;" vertex="1" parent="ztK6fYnErQ94AF5k2fzQ-330">
          <mxGeometry x="120" y="21" width="120" height="60" as="geometry" />
        </mxCell>
        <mxCell id="ztK6fYnErQ94AF5k2fzQ-333" value="&lt;b&gt;&lt;font style=&quot;font-size: 17px;&quot;&gt;Brand&lt;/font&gt;&lt;/b&gt;" style="text;html=1;align=left;verticalAlign=middle;whiteSpace=wrap;rounded=0;" vertex="1" parent="ztK6fYnErQ94AF5k2fzQ-330">
          <mxGeometry width="110" height="21" as="geometry" />
        </mxCell>
        <mxCell id="ztK6fYnErQ94AF5k2fzQ-334" value="" style="group" connectable="0" vertex="1" parent="1">
          <mxGeometry x="88" y="5568" width="963" height="84" as="geometry" />
        </mxCell>
        <mxCell id="ztK6fYnErQ94AF5k2fzQ-335" value="Date_created" style="rounded=0;whiteSpace=wrap;html=1;" vertex="1" parent="ztK6fYnErQ94AF5k2fzQ-334">
          <mxGeometry x="843" y="24" width="120" height="60" as="geometry" />
        </mxCell>
        <mxCell id="ztK6fYnErQ94AF5k2fzQ-336" value="Hashed_Password" style="rounded=0;whiteSpace=wrap;html=1;" vertex="1" parent="ztK6fYnErQ94AF5k2fzQ-334">
          <mxGeometry x="603" y="24" width="120" height="60" as="geometry" />
        </mxCell>
        <mxCell id="ztK6fYnErQ94AF5k2fzQ-337" value="Salt" style="rounded=0;whiteSpace=wrap;html=1;" vertex="1" parent="ztK6fYnErQ94AF5k2fzQ-334">
          <mxGeometry x="723" y="24" width="120" height="60" as="geometry" />
        </mxCell>
        <mxCell id="ztK6fYnErQ94AF5k2fzQ-338" value="First_name" style="rounded=0;whiteSpace=wrap;html=1;" vertex="1" parent="ztK6fYnErQ94AF5k2fzQ-334">
          <mxGeometry x="123" y="24" width="120" height="60" as="geometry" />
        </mxCell>
        <mxCell id="ztK6fYnErQ94AF5k2fzQ-339" value="Last_name" style="rounded=0;whiteSpace=wrap;html=1;" vertex="1" parent="ztK6fYnErQ94AF5k2fzQ-334">
          <mxGeometry x="243" y="24" width="120" height="60" as="geometry" />
        </mxCell>
        <mxCell id="ztK6fYnErQ94AF5k2fzQ-340" value="Username" style="rounded=0;whiteSpace=wrap;html=1;" vertex="1" parent="ztK6fYnErQ94AF5k2fzQ-334">
          <mxGeometry x="363" y="24" width="120" height="60" as="geometry" />
        </mxCell>
        <mxCell id="ztK6fYnErQ94AF5k2fzQ-341" value="&lt;u&gt;User_ID&lt;/u&gt;" style="rounded=0;whiteSpace=wrap;html=1;" vertex="1" parent="ztK6fYnErQ94AF5k2fzQ-334">
          <mxGeometry x="3" y="24" width="120" height="60" as="geometry" />
        </mxCell>
        <mxCell id="ztK6fYnErQ94AF5k2fzQ-342" value="Email" style="rounded=0;whiteSpace=wrap;html=1;" vertex="1" parent="ztK6fYnErQ94AF5k2fzQ-334">
          <mxGeometry x="483" y="24" width="120" height="60" as="geometry" />
        </mxCell>
        <mxCell id="ztK6fYnErQ94AF5k2fzQ-343" value="&lt;b&gt;&lt;font style=&quot;font-size: 17px;&quot;&gt;User&lt;/font&gt;&lt;/b&gt;" style="text;html=1;align=left;verticalAlign=middle;whiteSpace=wrap;rounded=0;" vertex="1" parent="ztK6fYnErQ94AF5k2fzQ-334">
          <mxGeometry width="110" height="21" as="geometry" />
        </mxCell>
        <mxCell id="ztK6fYnErQ94AF5k2fzQ-344" value="" style="group" connectable="0" vertex="1" parent="1">
          <mxGeometry x="98" y="6393" width="360" height="81" as="geometry" />
        </mxCell>
        <mxCell id="ztK6fYnErQ94AF5k2fzQ-345" value="&lt;u&gt;Privilege_ID&lt;/u&gt;" style="rounded=0;whiteSpace=wrap;html=1;" vertex="1" parent="ztK6fYnErQ94AF5k2fzQ-344">
          <mxGeometry y="21" width="120" height="60" as="geometry" />
        </mxCell>
        <mxCell id="ztK6fYnErQ94AF5k2fzQ-346" value="Privilege_Name" style="rounded=0;whiteSpace=wrap;html=1;" vertex="1" parent="ztK6fYnErQ94AF5k2fzQ-344">
          <mxGeometry x="120" y="21" width="120" height="60" as="geometry" />
        </mxCell>
        <mxCell id="ztK6fYnErQ94AF5k2fzQ-347" value="Description" style="rounded=0;whiteSpace=wrap;html=1;" vertex="1" parent="ztK6fYnErQ94AF5k2fzQ-344">
          <mxGeometry x="240" y="21" width="120" height="60" as="geometry" />
        </mxCell>
        <mxCell id="ztK6fYnErQ94AF5k2fzQ-348" value="&lt;span style=&quot;font-size: 17px;&quot;&gt;&lt;b&gt;Privileges&lt;/b&gt;&lt;/span&gt;" style="text;html=1;align=left;verticalAlign=middle;whiteSpace=wrap;rounded=0;" vertex="1" parent="ztK6fYnErQ94AF5k2fzQ-344">
          <mxGeometry width="110" height="21" as="geometry" />
        </mxCell>
        <mxCell id="ztK6fYnErQ94AF5k2fzQ-349" value="" style="group" connectable="0" vertex="1" parent="1">
          <mxGeometry x="96" y="6514" width="120" height="81" as="geometry" />
        </mxCell>
        <mxCell id="ztK6fYnErQ94AF5k2fzQ-350" value="Privilege_ID" style="rounded=0;whiteSpace=wrap;html=1;" vertex="1" parent="ztK6fYnErQ94AF5k2fzQ-349">
          <mxGeometry y="21" width="120" height="60" as="geometry" />
        </mxCell>
        <mxCell id="ztK6fYnErQ94AF5k2fzQ-351" value="&lt;span style=&quot;font-size: 17px;&quot;&gt;&lt;b&gt;Admin&lt;/b&gt;&lt;/span&gt;" style="text;html=1;align=left;verticalAlign=middle;whiteSpace=wrap;rounded=0;" vertex="1" parent="ztK6fYnErQ94AF5k2fzQ-349">
          <mxGeometry width="110" height="21" as="geometry" />
        </mxCell>
        <mxCell id="ztK6fYnErQ94AF5k2fzQ-352" value="" style="group" connectable="0" vertex="1" parent="1">
          <mxGeometry x="96" y="6631" width="120" height="81" as="geometry" />
        </mxCell>
        <mxCell id="ztK6fYnErQ94AF5k2fzQ-353" value="Is_Memeber" style="rounded=0;whiteSpace=wrap;html=1;" vertex="1" parent="ztK6fYnErQ94AF5k2fzQ-352">
          <mxGeometry y="21" width="120" height="60" as="geometry" />
        </mxCell>
        <mxCell id="ztK6fYnErQ94AF5k2fzQ-354" value="&lt;b&gt;&lt;font style=&quot;font-size: 17px;&quot;&gt;Customer&lt;/font&gt;&lt;/b&gt;" style="text;html=1;align=left;verticalAlign=middle;whiteSpace=wrap;rounded=0;" vertex="1" parent="ztK6fYnErQ94AF5k2fzQ-352">
          <mxGeometry width="110" height="21" as="geometry" />
        </mxCell>
        <mxCell id="ztK6fYnErQ94AF5k2fzQ-355" value="&lt;b&gt;&lt;font style=&quot;font-size: 30px;&quot;&gt;Step 5: M-to-N relationships: Product-Wishlist and Product-Retailer&lt;/font&gt;&lt;/b&gt;" style="text;html=1;align=center;verticalAlign=middle;whiteSpace=wrap;rounded=0;" vertex="1" parent="1">
          <mxGeometry x="66" y="5486" width="985" height="62" as="geometry" />
        </mxCell>
        <mxCell id="ztK6fYnErQ94AF5k2fzQ-356" value="" style="group" connectable="0" vertex="1" parent="1">
          <mxGeometry x="96" y="6748" width="360" height="81" as="geometry" />
        </mxCell>
        <mxCell id="ztK6fYnErQ94AF5k2fzQ-357" value="&lt;u&gt;User_ID&lt;/u&gt;" style="rounded=0;whiteSpace=wrap;html=1;" vertex="1" parent="ztK6fYnErQ94AF5k2fzQ-356">
          <mxGeometry y="21" width="120" height="60" as="geometry" />
        </mxCell>
        <mxCell id="ztK6fYnErQ94AF5k2fzQ-358" value="&lt;u&gt;Product_ID&lt;/u&gt;" style="rounded=0;whiteSpace=wrap;html=1;" vertex="1" parent="ztK6fYnErQ94AF5k2fzQ-356">
          <mxGeometry x="120" y="21" width="120" height="60" as="geometry" />
        </mxCell>
        <mxCell id="ztK6fYnErQ94AF5k2fzQ-359" value="Date_Added" style="rounded=0;whiteSpace=wrap;html=1;" vertex="1" parent="ztK6fYnErQ94AF5k2fzQ-356">
          <mxGeometry x="240" y="21" width="120" height="60" as="geometry" />
        </mxCell>
        <mxCell id="ztK6fYnErQ94AF5k2fzQ-360" value="&lt;span style=&quot;font-size: 17px;&quot;&gt;&lt;b&gt;Wishlist&lt;/b&gt;&lt;/span&gt;" style="text;html=1;align=left;verticalAlign=middle;whiteSpace=wrap;rounded=0;" vertex="1" parent="ztK6fYnErQ94AF5k2fzQ-356">
          <mxGeometry width="110" height="21" as="geometry" />
        </mxCell>
        <mxCell id="ztK6fYnErQ94AF5k2fzQ-361" style="edgeStyle=orthogonalEdgeStyle;rounded=0;orthogonalLoop=1;jettySize=auto;html=1;fontSize=12;startSize=8;endSize=8;exitX=0.5;exitY=1;exitDx=0;exitDy=0;entryX=0.25;entryY=1;entryDx=0;entryDy=0;elbow=vertical;" edge="1" parent="1" source="ztK6fYnErQ94AF5k2fzQ-357" target="ztK6fYnErQ94AF5k2fzQ-341">
          <mxGeometry relative="1" as="geometry">
            <mxPoint x="117.4249153137207" y="7015.600006103516" as="targetPoint" />
            <Array as="points">
              <mxPoint x="156" y="6855" />
              <mxPoint x="1018" y="6855" />
              <mxPoint x="1018" y="5667" />
              <mxPoint x="121" y="5667" />
            </Array>
          </mxGeometry>
        </mxCell>
        <mxCell id="ztK6fYnErQ94AF5k2fzQ-362" style="edgeStyle=orthogonalEdgeStyle;rounded=0;orthogonalLoop=1;jettySize=auto;html=1;fontSize=12;startSize=8;endSize=8;entryX=0.35;entryY=1.004;entryDx=0;entryDy=0;entryPerimeter=0;exitX=0.5;exitY=1;exitDx=0;exitDy=0;" edge="1" parent="1" source="ztK6fYnErQ94AF5k2fzQ-358" target="ztK6fYnErQ94AF5k2fzQ-311">
          <mxGeometry relative="1" as="geometry">
            <mxPoint x="271" y="6813.56005859375" as="targetPoint" />
            <Array as="points">
              <mxPoint x="276" y="6843" />
              <mxPoint x="619" y="6843" />
              <mxPoint x="619" y="6042" />
              <mxPoint x="135" y="6042" />
            </Array>
          </mxGeometry>
        </mxCell>
        <mxCell id="ztK6fYnErQ94AF5k2fzQ-363" style="edgeStyle=orthogonalEdgeStyle;rounded=0;orthogonalLoop=1;jettySize=auto;html=1;fontSize=12;startSize=8;endSize=8;entryX=0.14;entryY=0.997;entryDx=0;entryDy=0;entryPerimeter=0;exitX=0.5;exitY=1;exitDx=0;exitDy=0;" edge="1" parent="1" source="ztK6fYnErQ94AF5k2fzQ-301" target="ztK6fYnErQ94AF5k2fzQ-341">
          <mxGeometry relative="1" as="geometry">
            <mxPoint x="112.25450827858663" y="5679.381724964488" as="targetPoint" />
            <Array as="points">
              <mxPoint x="753" y="5778" />
              <mxPoint x="950" y="5778" />
              <mxPoint x="950" y="5677" />
              <mxPoint x="108" y="5677" />
            </Array>
          </mxGeometry>
        </mxCell>
        <mxCell id="ztK6fYnErQ94AF5k2fzQ-364" style="edgeStyle=orthogonalEdgeStyle;rounded=0;orthogonalLoop=1;jettySize=auto;html=1;entryX=0.5;entryY=1;entryDx=0;entryDy=0;fontSize=12;startSize=8;endSize=8;exitX=0.5;exitY=1;exitDx=0;exitDy=0;" edge="1" parent="1" source="ztK6fYnErQ94AF5k2fzQ-298" target="ztK6fYnErQ94AF5k2fzQ-311">
          <mxGeometry relative="1" as="geometry">
            <Array as="points">
              <mxPoint x="393" y="5795" />
              <mxPoint x="965" y="5795" />
              <mxPoint x="965" y="6025" />
              <mxPoint x="153" y="6025" />
            </Array>
          </mxGeometry>
        </mxCell>
        <mxCell id="ztK6fYnErQ94AF5k2fzQ-365" style="edgeStyle=orthogonalEdgeStyle;rounded=0;orthogonalLoop=1;jettySize=auto;html=1;fontSize=12;startSize=8;endSize=8;exitX=0.5;exitY=1;exitDx=0;exitDy=0;entryX=0.166;entryY=1.004;entryDx=0;entryDy=0;entryPerimeter=0;" edge="1" parent="1" source="ztK6fYnErQ94AF5k2fzQ-321" target="ztK6fYnErQ94AF5k2fzQ-311">
          <mxGeometry relative="1" as="geometry">
            <mxPoint x="94" y="6010" as="targetPoint" />
            <Array as="points">
              <mxPoint x="278" y="6177" />
              <mxPoint x="596" y="6177" />
              <mxPoint x="596" y="6054" />
              <mxPoint x="113" y="6054" />
            </Array>
          </mxGeometry>
        </mxCell>
        <mxCell id="ztK6fYnErQ94AF5k2fzQ-366" style="edgeStyle=orthogonalEdgeStyle;rounded=0;orthogonalLoop=1;jettySize=auto;html=1;entryX=0.5;entryY=1;entryDx=0;entryDy=0;fontSize=12;startSize=8;endSize=8;exitX=0.5;exitY=1;exitDx=0;exitDy=0;" edge="1" parent="1" source="ztK6fYnErQ94AF5k2fzQ-331" target="ztK6fYnErQ94AF5k2fzQ-312">
          <mxGeometry relative="1" as="geometry">
            <Array as="points">
              <mxPoint x="156" y="6375" />
              <mxPoint x="635" y="6375" />
              <mxPoint x="635" y="6007" />
              <mxPoint x="273" y="6007" />
            </Array>
          </mxGeometry>
        </mxCell>
        <mxCell id="ztK6fYnErQ94AF5k2fzQ-367" style="edgeStyle=orthogonalEdgeStyle;rounded=0;orthogonalLoop=1;jettySize=auto;html=1;entryX=0.5;entryY=1;entryDx=0;entryDy=0;fontSize=12;startSize=8;endSize=8;" edge="1" parent="1" source="ztK6fYnErQ94AF5k2fzQ-350" target="ztK6fYnErQ94AF5k2fzQ-345">
          <mxGeometry relative="1" as="geometry">
            <Array as="points">
              <mxPoint x="156" y="6616" />
              <mxPoint x="242" y="6616" />
              <mxPoint x="242" y="6491" />
              <mxPoint x="158" y="6491" />
            </Array>
          </mxGeometry>
        </mxCell>
        <mxCell id="ztK6fYnErQ94AF5k2fzQ-374" value="" style="group" connectable="0" vertex="1" parent="1">
          <mxGeometry x="95" y="6906" width="600" height="85" as="geometry" />
        </mxCell>
        <mxCell id="ztK6fYnErQ94AF5k2fzQ-368" value="&lt;u&gt;Product_ID&lt;/u&gt;" style="rounded=0;whiteSpace=wrap;html=1;" vertex="1" parent="ztK6fYnErQ94AF5k2fzQ-374">
          <mxGeometry y="25" width="120" height="60" as="geometry" />
        </mxCell>
        <mxCell id="ztK6fYnErQ94AF5k2fzQ-369" value="&lt;u&gt;Retailer_ID&lt;/u&gt;" style="rounded=0;whiteSpace=wrap;html=1;" vertex="1" parent="ztK6fYnErQ94AF5k2fzQ-374">
          <mxGeometry x="120" y="25" width="120" height="60" as="geometry" />
        </mxCell>
        <mxCell id="ztK6fYnErQ94AF5k2fzQ-370" value="Price" style="rounded=0;whiteSpace=wrap;html=1;" vertex="1" parent="ztK6fYnErQ94AF5k2fzQ-374">
          <mxGeometry x="240" y="25" width="120" height="60" as="geometry" />
        </mxCell>
        <mxCell id="ztK6fYnErQ94AF5k2fzQ-371" value="Last_Updated" style="rounded=0;whiteSpace=wrap;html=1;" vertex="1" parent="ztK6fYnErQ94AF5k2fzQ-374">
          <mxGeometry x="360" y="25" width="120" height="60" as="geometry" />
        </mxCell>
        <mxCell id="ztK6fYnErQ94AF5k2fzQ-372" value="Stock_Status" style="rounded=0;whiteSpace=wrap;html=1;" vertex="1" parent="ztK6fYnErQ94AF5k2fzQ-374">
          <mxGeometry x="480" y="25" width="120" height="60" as="geometry" />
        </mxCell>
        <mxCell id="ztK6fYnErQ94AF5k2fzQ-373" value="&lt;span style=&quot;font-size: 17px;&quot;&gt;&lt;b&gt;Sells&lt;/b&gt;&lt;/span&gt;" style="text;html=1;align=left;verticalAlign=middle;whiteSpace=wrap;rounded=0;" vertex="1" parent="ztK6fYnErQ94AF5k2fzQ-374">
          <mxGeometry width="110" height="21" as="geometry" />
        </mxCell>
        <mxCell id="ztK6fYnErQ94AF5k2fzQ-375" style="edgeStyle=orthogonalEdgeStyle;rounded=0;orthogonalLoop=1;jettySize=auto;html=1;entryX=0.75;entryY=1;entryDx=0;entryDy=0;fontSize=12;startSize=8;endSize=8;exitX=0.5;exitY=1;exitDx=0;exitDy=0;" edge="1" parent="1" source="ztK6fYnErQ94AF5k2fzQ-368" target="ztK6fYnErQ94AF5k2fzQ-311">
          <mxGeometry relative="1" as="geometry">
            <Array as="points">
              <mxPoint x="155" y="7028" />
              <mxPoint x="813" y="7028" />
              <mxPoint x="813" y="6017" />
              <mxPoint x="183" y="6017" />
            </Array>
          </mxGeometry>
        </mxCell>
        <mxCell id="ztK6fYnErQ94AF5k2fzQ-376" style="edgeStyle=orthogonalEdgeStyle;rounded=0;orthogonalLoop=1;jettySize=auto;html=1;entryX=0.5;entryY=1;entryDx=0;entryDy=0;fontSize=12;startSize=8;endSize=8;" edge="1" parent="1" source="ztK6fYnErQ94AF5k2fzQ-369" target="ztK6fYnErQ94AF5k2fzQ-305">
          <mxGeometry relative="1" as="geometry">
            <Array as="points">
              <mxPoint x="275" y="7011" />
              <mxPoint x="948" y="7011" />
              <mxPoint x="948" y="5901" />
              <mxPoint x="153" y="5901" />
            </Array>
          </mxGeometry>
        </mxCell>
        <mxCell id="ztK6fYnErQ94AF5k2fzQ-377" value="" style="group" connectable="0" vertex="1" parent="1">
          <mxGeometry x="113" y="7304" width="841" height="86" as="geometry" />
        </mxCell>
        <mxCell id="ztK6fYnErQ94AF5k2fzQ-378" value="&lt;u&gt;Review_ID&lt;/u&gt;" style="rounded=0;whiteSpace=wrap;html=1;" vertex="1" parent="ztK6fYnErQ94AF5k2fzQ-377">
          <mxGeometry x="3" y="26" width="120" height="60" as="geometry" />
        </mxCell>
        <mxCell id="ztK6fYnErQ94AF5k2fzQ-379" value="Rating" style="rounded=0;whiteSpace=wrap;html=1;" vertex="1" parent="ztK6fYnErQ94AF5k2fzQ-377">
          <mxGeometry x="123" y="26" width="120" height="60" as="geometry" />
        </mxCell>
        <mxCell id="ztK6fYnErQ94AF5k2fzQ-380" value="Retailer_ID" style="rounded=0;whiteSpace=wrap;html=1;" vertex="1" parent="ztK6fYnErQ94AF5k2fzQ-377">
          <mxGeometry x="243" y="26" width="120" height="60" as="geometry" />
        </mxCell>
        <mxCell id="ztK6fYnErQ94AF5k2fzQ-381" value="Product_ID" style="rounded=0;whiteSpace=wrap;html=1;" vertex="1" parent="ztK6fYnErQ94AF5k2fzQ-377">
          <mxGeometry x="363" y="26" width="120" height="60" as="geometry" />
        </mxCell>
        <mxCell id="ztK6fYnErQ94AF5k2fzQ-382" value="Comment" style="rounded=0;whiteSpace=wrap;html=1;" vertex="1" parent="ztK6fYnErQ94AF5k2fzQ-377">
          <mxGeometry x="483" y="26" width="120" height="60" as="geometry" />
        </mxCell>
        <mxCell id="ztK6fYnErQ94AF5k2fzQ-383" value="User_ID" style="rounded=0;whiteSpace=wrap;html=1;" vertex="1" parent="ztK6fYnErQ94AF5k2fzQ-377">
          <mxGeometry x="603" y="26" width="120" height="60" as="geometry" />
        </mxCell>
        <mxCell id="ztK6fYnErQ94AF5k2fzQ-384" value="Review_Date" style="rounded=0;whiteSpace=wrap;html=1;" vertex="1" parent="ztK6fYnErQ94AF5k2fzQ-377">
          <mxGeometry x="721" y="26" width="120" height="60" as="geometry" />
        </mxCell>
        <mxCell id="ztK6fYnErQ94AF5k2fzQ-385" value="&lt;span style=&quot;font-size: 17px;&quot;&gt;&lt;b&gt;Review&lt;/b&gt;&lt;/span&gt;" style="text;html=1;align=left;verticalAlign=middle;whiteSpace=wrap;rounded=0;" vertex="1" parent="ztK6fYnErQ94AF5k2fzQ-377">
          <mxGeometry width="110" height="21" as="geometry" />
        </mxCell>
        <mxCell id="ztK6fYnErQ94AF5k2fzQ-386" value="" style="group" connectable="0" vertex="1" parent="1">
          <mxGeometry x="116" y="7415" width="480" height="85" as="geometry" />
        </mxCell>
        <mxCell id="ztK6fYnErQ94AF5k2fzQ-387" value="&lt;u&gt;Retailer_ID&lt;/u&gt;" style="rounded=0;whiteSpace=wrap;html=1;" vertex="1" parent="ztK6fYnErQ94AF5k2fzQ-386">
          <mxGeometry y="25" width="120" height="60" as="geometry" />
        </mxCell>
        <mxCell id="ztK6fYnErQ94AF5k2fzQ-388" value="Name" style="rounded=0;whiteSpace=wrap;html=1;" vertex="1" parent="ztK6fYnErQ94AF5k2fzQ-386">
          <mxGeometry x="120" y="25" width="120" height="60" as="geometry" />
        </mxCell>
        <mxCell id="ztK6fYnErQ94AF5k2fzQ-389" value="Website" style="rounded=0;whiteSpace=wrap;html=1;" vertex="1" parent="ztK6fYnErQ94AF5k2fzQ-386">
          <mxGeometry x="240" y="25" width="120" height="60" as="geometry" />
        </mxCell>
        <mxCell id="ztK6fYnErQ94AF5k2fzQ-390" value="Logo_URL" style="rounded=0;whiteSpace=wrap;html=1;" vertex="1" parent="ztK6fYnErQ94AF5k2fzQ-386">
          <mxGeometry x="360" y="25" width="120" height="60" as="geometry" />
        </mxCell>
        <mxCell id="ztK6fYnErQ94AF5k2fzQ-391" value="&lt;span style=&quot;font-size: 17px;&quot;&gt;&lt;b&gt;Retailer&lt;/b&gt;&lt;/span&gt;" style="text;html=1;align=left;verticalAlign=middle;whiteSpace=wrap;rounded=0;" vertex="1" parent="ztK6fYnErQ94AF5k2fzQ-386">
          <mxGeometry x="-7" width="110" height="21" as="geometry" />
        </mxCell>
        <mxCell id="ztK6fYnErQ94AF5k2fzQ-392" value="" style="group" connectable="0" vertex="1" parent="1">
          <mxGeometry x="116" y="7529" width="838" height="85" as="geometry" />
        </mxCell>
        <mxCell id="ztK6fYnErQ94AF5k2fzQ-393" value="&lt;u&gt;Product_ID&lt;/u&gt;" style="rounded=0;whiteSpace=wrap;html=1;" vertex="1" parent="ztK6fYnErQ94AF5k2fzQ-392">
          <mxGeometry y="25" width="120" height="60" as="geometry" />
        </mxCell>
        <mxCell id="ztK6fYnErQ94AF5k2fzQ-394" value="Brand_ID" style="rounded=0;whiteSpace=wrap;html=1;" vertex="1" parent="ztK6fYnErQ94AF5k2fzQ-392">
          <mxGeometry x="120" y="25" width="120" height="60" as="geometry" />
        </mxCell>
        <mxCell id="ztK6fYnErQ94AF5k2fzQ-395" value="Category_ID" style="rounded=0;whiteSpace=wrap;html=1;" vertex="1" parent="ztK6fYnErQ94AF5k2fzQ-392">
          <mxGeometry x="240" y="25" width="120" height="60" as="geometry" />
        </mxCell>
        <mxCell id="ztK6fYnErQ94AF5k2fzQ-396" value="Name" style="rounded=0;whiteSpace=wrap;html=1;" vertex="1" parent="ztK6fYnErQ94AF5k2fzQ-392">
          <mxGeometry x="360" y="25" width="120" height="60" as="geometry" />
        </mxCell>
        <mxCell id="ztK6fYnErQ94AF5k2fzQ-397" value="Description" style="rounded=0;whiteSpace=wrap;html=1;" vertex="1" parent="ztK6fYnErQ94AF5k2fzQ-392">
          <mxGeometry x="480" y="25" width="120" height="60" as="geometry" />
        </mxCell>
        <mxCell id="ztK6fYnErQ94AF5k2fzQ-398" value="Specifications" style="rounded=0;whiteSpace=wrap;html=1;" vertex="1" parent="ztK6fYnErQ94AF5k2fzQ-392">
          <mxGeometry x="600" y="25" width="120" height="60" as="geometry" />
        </mxCell>
        <mxCell id="ztK6fYnErQ94AF5k2fzQ-399" value="Review_Date" style="rounded=0;whiteSpace=wrap;html=1;" vertex="1" parent="ztK6fYnErQ94AF5k2fzQ-392">
          <mxGeometry x="718" y="25" width="120" height="60" as="geometry" />
        </mxCell>
        <mxCell id="ztK6fYnErQ94AF5k2fzQ-400" value="&lt;span style=&quot;font-size: 17px;&quot;&gt;&lt;b&gt;Product&lt;/b&gt;&lt;/span&gt;" style="text;html=1;align=left;verticalAlign=middle;whiteSpace=wrap;rounded=0;" vertex="1" parent="ztK6fYnErQ94AF5k2fzQ-392">
          <mxGeometry width="110" height="21" as="geometry" />
        </mxCell>
        <mxCell id="ztK6fYnErQ94AF5k2fzQ-401" value="" style="group" connectable="0" vertex="1" parent="1">
          <mxGeometry x="121" y="7708" width="480" height="81" as="geometry" />
        </mxCell>
        <mxCell id="ztK6fYnErQ94AF5k2fzQ-402" value="&lt;u&gt;Image_ID&lt;/u&gt;" style="rounded=0;whiteSpace=wrap;html=1;" vertex="1" parent="ztK6fYnErQ94AF5k2fzQ-401">
          <mxGeometry y="21" width="120" height="60" as="geometry" />
        </mxCell>
        <mxCell id="ztK6fYnErQ94AF5k2fzQ-403" value="Product_ID" style="rounded=0;whiteSpace=wrap;html=1;" vertex="1" parent="ztK6fYnErQ94AF5k2fzQ-401">
          <mxGeometry x="120" y="21" width="120" height="60" as="geometry" />
        </mxCell>
        <mxCell id="ztK6fYnErQ94AF5k2fzQ-404" value="Image_URL" style="rounded=0;whiteSpace=wrap;html=1;" vertex="1" parent="ztK6fYnErQ94AF5k2fzQ-401">
          <mxGeometry x="240" y="21" width="120" height="60" as="geometry" />
        </mxCell>
        <mxCell id="ztK6fYnErQ94AF5k2fzQ-405" value="Caption" style="rounded=0;whiteSpace=wrap;html=1;" vertex="1" parent="ztK6fYnErQ94AF5k2fzQ-401">
          <mxGeometry x="360" y="21" width="120" height="60" as="geometry" />
        </mxCell>
        <mxCell id="ztK6fYnErQ94AF5k2fzQ-406" value="&lt;span style=&quot;font-size: 17px;&quot;&gt;&lt;b&gt;Images&lt;/b&gt;&lt;/span&gt;" style="text;html=1;align=left;verticalAlign=middle;whiteSpace=wrap;rounded=0;" vertex="1" parent="ztK6fYnErQ94AF5k2fzQ-401">
          <mxGeometry x="3" width="110" height="21" as="geometry" />
        </mxCell>
        <mxCell id="ztK6fYnErQ94AF5k2fzQ-407" value="" style="group" connectable="0" vertex="1" parent="1">
          <mxGeometry x="124" y="7807" width="360" height="81" as="geometry" />
        </mxCell>
        <mxCell id="ztK6fYnErQ94AF5k2fzQ-408" value="&lt;u&gt;Category_ID&lt;/u&gt;" style="rounded=0;whiteSpace=wrap;html=1;" vertex="1" parent="ztK6fYnErQ94AF5k2fzQ-407">
          <mxGeometry y="21" width="120" height="60" as="geometry" />
        </mxCell>
        <mxCell id="ztK6fYnErQ94AF5k2fzQ-409" value="Name" style="rounded=0;whiteSpace=wrap;html=1;" vertex="1" parent="ztK6fYnErQ94AF5k2fzQ-407">
          <mxGeometry x="120" y="21" width="120" height="60" as="geometry" />
        </mxCell>
        <mxCell id="ztK6fYnErQ94AF5k2fzQ-410" value="Parent_Category" style="rounded=0;whiteSpace=wrap;html=1;" vertex="1" parent="ztK6fYnErQ94AF5k2fzQ-407">
          <mxGeometry x="240" y="21" width="120" height="60" as="geometry" />
        </mxCell>
        <mxCell id="ztK6fYnErQ94AF5k2fzQ-411" value="&lt;b&gt;&lt;font style=&quot;font-size: 17px;&quot;&gt;Category&lt;/font&gt;&lt;/b&gt;" style="text;html=1;align=left;verticalAlign=middle;whiteSpace=wrap;rounded=0;" vertex="1" parent="ztK6fYnErQ94AF5k2fzQ-407">
          <mxGeometry width="110" height="21" as="geometry" />
        </mxCell>
        <mxCell id="ztK6fYnErQ94AF5k2fzQ-412" value="" style="group" connectable="0" vertex="1" parent="1">
          <mxGeometry x="119" y="7906" width="360" height="81" as="geometry" />
        </mxCell>
        <mxCell id="ztK6fYnErQ94AF5k2fzQ-413" value="&lt;u&gt;Brand_ID&lt;/u&gt;" style="rounded=0;whiteSpace=wrap;html=1;" vertex="1" parent="ztK6fYnErQ94AF5k2fzQ-412">
          <mxGeometry y="21" width="120" height="60" as="geometry" />
        </mxCell>
        <mxCell id="ztK6fYnErQ94AF5k2fzQ-414" value="Name" style="rounded=0;whiteSpace=wrap;html=1;" vertex="1" parent="ztK6fYnErQ94AF5k2fzQ-412">
          <mxGeometry x="120" y="21" width="120" height="60" as="geometry" />
        </mxCell>
        <mxCell id="ztK6fYnErQ94AF5k2fzQ-415" value="&lt;b&gt;&lt;font style=&quot;font-size: 17px;&quot;&gt;Brand&lt;/font&gt;&lt;/b&gt;" style="text;html=1;align=left;verticalAlign=middle;whiteSpace=wrap;rounded=0;" vertex="1" parent="ztK6fYnErQ94AF5k2fzQ-412">
          <mxGeometry width="110" height="21" as="geometry" />
        </mxCell>
        <mxCell id="ztK6fYnErQ94AF5k2fzQ-416" value="" style="group" connectable="0" vertex="1" parent="1">
          <mxGeometry x="111" y="7192" width="963" height="84" as="geometry" />
        </mxCell>
        <mxCell id="ztK6fYnErQ94AF5k2fzQ-417" value="Date_created" style="rounded=0;whiteSpace=wrap;html=1;" vertex="1" parent="ztK6fYnErQ94AF5k2fzQ-416">
          <mxGeometry x="843" y="24" width="120" height="60" as="geometry" />
        </mxCell>
        <mxCell id="ztK6fYnErQ94AF5k2fzQ-418" value="Hashed_Password" style="rounded=0;whiteSpace=wrap;html=1;" vertex="1" parent="ztK6fYnErQ94AF5k2fzQ-416">
          <mxGeometry x="603" y="24" width="120" height="60" as="geometry" />
        </mxCell>
        <mxCell id="ztK6fYnErQ94AF5k2fzQ-419" value="Salt" style="rounded=0;whiteSpace=wrap;html=1;" vertex="1" parent="ztK6fYnErQ94AF5k2fzQ-416">
          <mxGeometry x="723" y="24" width="120" height="60" as="geometry" />
        </mxCell>
        <mxCell id="ztK6fYnErQ94AF5k2fzQ-420" value="First_name" style="rounded=0;whiteSpace=wrap;html=1;" vertex="1" parent="ztK6fYnErQ94AF5k2fzQ-416">
          <mxGeometry x="123" y="24" width="120" height="60" as="geometry" />
        </mxCell>
        <mxCell id="ztK6fYnErQ94AF5k2fzQ-421" value="Last_name" style="rounded=0;whiteSpace=wrap;html=1;" vertex="1" parent="ztK6fYnErQ94AF5k2fzQ-416">
          <mxGeometry x="243" y="24" width="120" height="60" as="geometry" />
        </mxCell>
        <mxCell id="ztK6fYnErQ94AF5k2fzQ-422" value="Username" style="rounded=0;whiteSpace=wrap;html=1;" vertex="1" parent="ztK6fYnErQ94AF5k2fzQ-416">
          <mxGeometry x="363" y="24" width="120" height="60" as="geometry" />
        </mxCell>
        <mxCell id="ztK6fYnErQ94AF5k2fzQ-423" value="&lt;u&gt;User_ID&lt;/u&gt;" style="rounded=0;whiteSpace=wrap;html=1;" vertex="1" parent="ztK6fYnErQ94AF5k2fzQ-416">
          <mxGeometry x="3" y="24" width="120" height="60" as="geometry" />
        </mxCell>
        <mxCell id="ztK6fYnErQ94AF5k2fzQ-424" value="Email" style="rounded=0;whiteSpace=wrap;html=1;" vertex="1" parent="ztK6fYnErQ94AF5k2fzQ-416">
          <mxGeometry x="483" y="24" width="120" height="60" as="geometry" />
        </mxCell>
        <mxCell id="ztK6fYnErQ94AF5k2fzQ-425" value="&lt;b&gt;&lt;font style=&quot;font-size: 17px;&quot;&gt;User&lt;/font&gt;&lt;/b&gt;" style="text;html=1;align=left;verticalAlign=middle;whiteSpace=wrap;rounded=0;" vertex="1" parent="ztK6fYnErQ94AF5k2fzQ-416">
          <mxGeometry width="110" height="21" as="geometry" />
        </mxCell>
        <mxCell id="ztK6fYnErQ94AF5k2fzQ-426" value="" style="group" connectable="0" vertex="1" parent="1">
          <mxGeometry x="121" y="8017" width="360" height="81" as="geometry" />
        </mxCell>
        <mxCell id="ztK6fYnErQ94AF5k2fzQ-427" value="&lt;u&gt;Privilege_ID&lt;/u&gt;" style="rounded=0;whiteSpace=wrap;html=1;" vertex="1" parent="ztK6fYnErQ94AF5k2fzQ-426">
          <mxGeometry y="21" width="120" height="60" as="geometry" />
        </mxCell>
        <mxCell id="ztK6fYnErQ94AF5k2fzQ-428" value="Privilege_Name" style="rounded=0;whiteSpace=wrap;html=1;" vertex="1" parent="ztK6fYnErQ94AF5k2fzQ-426">
          <mxGeometry x="120" y="21" width="120" height="60" as="geometry" />
        </mxCell>
        <mxCell id="ztK6fYnErQ94AF5k2fzQ-429" value="Description" style="rounded=0;whiteSpace=wrap;html=1;" vertex="1" parent="ztK6fYnErQ94AF5k2fzQ-426">
          <mxGeometry x="240" y="21" width="120" height="60" as="geometry" />
        </mxCell>
        <mxCell id="ztK6fYnErQ94AF5k2fzQ-430" value="&lt;span style=&quot;font-size: 17px;&quot;&gt;&lt;b&gt;Privileges&lt;/b&gt;&lt;/span&gt;" style="text;html=1;align=left;verticalAlign=middle;whiteSpace=wrap;rounded=0;" vertex="1" parent="ztK6fYnErQ94AF5k2fzQ-426">
          <mxGeometry width="110" height="21" as="geometry" />
        </mxCell>
        <mxCell id="ztK6fYnErQ94AF5k2fzQ-431" value="" style="group" connectable="0" vertex="1" parent="1">
          <mxGeometry x="119" y="8138" width="120" height="81" as="geometry" />
        </mxCell>
        <mxCell id="ztK6fYnErQ94AF5k2fzQ-432" value="&lt;u&gt;User_ID&lt;/u&gt;" style="rounded=0;whiteSpace=wrap;html=1;" vertex="1" parent="ztK6fYnErQ94AF5k2fzQ-431">
          <mxGeometry y="21" width="120" height="60" as="geometry" />
        </mxCell>
        <mxCell id="ztK6fYnErQ94AF5k2fzQ-433" value="&lt;span style=&quot;font-size: 17px;&quot;&gt;&lt;b&gt;Admin&lt;/b&gt;&lt;/span&gt;" style="text;html=1;align=left;verticalAlign=middle;whiteSpace=wrap;rounded=0;" vertex="1" parent="ztK6fYnErQ94AF5k2fzQ-431">
          <mxGeometry width="110" height="21" as="geometry" />
        </mxCell>
        <mxCell id="ztK6fYnErQ94AF5k2fzQ-434" value="" style="group" connectable="0" vertex="1" parent="1">
          <mxGeometry x="119" y="8255" width="120" height="81" as="geometry" />
        </mxCell>
        <mxCell id="ztK6fYnErQ94AF5k2fzQ-435" value="&lt;u&gt;User_ID&lt;/u&gt;" style="rounded=0;whiteSpace=wrap;html=1;" vertex="1" parent="ztK6fYnErQ94AF5k2fzQ-434">
          <mxGeometry y="21" width="120" height="60" as="geometry" />
        </mxCell>
        <mxCell id="ztK6fYnErQ94AF5k2fzQ-436" value="&lt;b&gt;&lt;font style=&quot;font-size: 17px;&quot;&gt;Customer&lt;/font&gt;&lt;/b&gt;" style="text;html=1;align=left;verticalAlign=middle;whiteSpace=wrap;rounded=0;" vertex="1" parent="ztK6fYnErQ94AF5k2fzQ-434">
          <mxGeometry width="110" height="21" as="geometry" />
        </mxCell>
        <mxCell id="ztK6fYnErQ94AF5k2fzQ-437" value="&lt;b&gt;&lt;font style=&quot;font-size: 30px;&quot;&gt;Step 8:&amp;nbsp;&lt;/font&gt;&lt;/b&gt;&lt;span style=&quot;background-color: transparent; font-size: 30px;&quot;&gt;&lt;b&gt;Mapping&amp;nbsp;&lt;/b&gt;&lt;/span&gt;&lt;span style=&quot;background-color: transparent; color: light-dark(rgb(0, 0, 0), rgb(255, 255, 255)); font-size: 30px;&quot;&gt;&lt;b&gt;specialisation and&amp;nbsp;&lt;/b&gt;&lt;/span&gt;&lt;b style=&quot;background-color: transparent; color: light-dark(rgb(0, 0, 0), rgb(255, 255, 255)); font-size: 30px;&quot;&gt;generalisation: Customer and Admin&lt;/b&gt;" style="text;html=1;align=center;verticalAlign=middle;whiteSpace=wrap;rounded=0;" vertex="1" parent="1">
          <mxGeometry x="89" y="7110" width="1087" height="62" as="geometry" />
        </mxCell>
        <mxCell id="ztK6fYnErQ94AF5k2fzQ-438" value="" style="group" connectable="0" vertex="1" parent="1">
          <mxGeometry x="119" y="8372" width="360" height="81" as="geometry" />
        </mxCell>
        <mxCell id="ztK6fYnErQ94AF5k2fzQ-439" value="&lt;u&gt;User_ID&lt;/u&gt;" style="rounded=0;whiteSpace=wrap;html=1;" vertex="1" parent="ztK6fYnErQ94AF5k2fzQ-438">
          <mxGeometry y="21" width="120" height="60" as="geometry" />
        </mxCell>
        <mxCell id="ztK6fYnErQ94AF5k2fzQ-440" value="&lt;u&gt;Product_ID&lt;/u&gt;" style="rounded=0;whiteSpace=wrap;html=1;" vertex="1" parent="ztK6fYnErQ94AF5k2fzQ-438">
          <mxGeometry x="120" y="21" width="120" height="60" as="geometry" />
        </mxCell>
        <mxCell id="ztK6fYnErQ94AF5k2fzQ-441" value="Date_Added" style="rounded=0;whiteSpace=wrap;html=1;" vertex="1" parent="ztK6fYnErQ94AF5k2fzQ-438">
          <mxGeometry x="240" y="21" width="120" height="60" as="geometry" />
        </mxCell>
        <mxCell id="ztK6fYnErQ94AF5k2fzQ-442" value="&lt;span style=&quot;font-size: 17px;&quot;&gt;&lt;b&gt;Wishlist&lt;/b&gt;&lt;/span&gt;" style="text;html=1;align=left;verticalAlign=middle;whiteSpace=wrap;rounded=0;" vertex="1" parent="ztK6fYnErQ94AF5k2fzQ-438">
          <mxGeometry width="110" height="21" as="geometry" />
        </mxCell>
        <mxCell id="ztK6fYnErQ94AF5k2fzQ-443" style="edgeStyle=orthogonalEdgeStyle;rounded=0;orthogonalLoop=1;jettySize=auto;html=1;fontSize=12;startSize=8;endSize=8;exitX=0.5;exitY=1;exitDx=0;exitDy=0;entryX=0.25;entryY=1;entryDx=0;entryDy=0;elbow=vertical;" edge="1" parent="1" source="ztK6fYnErQ94AF5k2fzQ-439" target="ztK6fYnErQ94AF5k2fzQ-423">
          <mxGeometry relative="1" as="geometry">
            <mxPoint x="140.4249153137207" y="8639.600006103516" as="targetPoint" />
            <Array as="points">
              <mxPoint x="179" y="8479" />
              <mxPoint x="1041" y="8479" />
              <mxPoint x="1041" y="7297" />
              <mxPoint x="144" y="7297" />
            </Array>
          </mxGeometry>
        </mxCell>
        <mxCell id="ztK6fYnErQ94AF5k2fzQ-444" style="edgeStyle=orthogonalEdgeStyle;rounded=0;orthogonalLoop=1;jettySize=auto;html=1;fontSize=12;startSize=8;endSize=8;entryX=0.35;entryY=1.004;entryDx=0;entryDy=0;entryPerimeter=0;exitX=0.5;exitY=1;exitDx=0;exitDy=0;" edge="1" parent="1" source="ztK6fYnErQ94AF5k2fzQ-440" target="ztK6fYnErQ94AF5k2fzQ-393">
          <mxGeometry relative="1" as="geometry">
            <mxPoint x="294" y="8437.56005859375" as="targetPoint" />
            <Array as="points">
              <mxPoint x="299" y="8467" />
              <mxPoint x="642" y="8467" />
              <mxPoint x="642" y="7666" />
              <mxPoint x="158" y="7666" />
            </Array>
          </mxGeometry>
        </mxCell>
        <mxCell id="ztK6fYnErQ94AF5k2fzQ-445" style="edgeStyle=orthogonalEdgeStyle;rounded=0;orthogonalLoop=1;jettySize=auto;html=1;fontSize=12;startSize=8;endSize=8;entryX=0.14;entryY=0.997;entryDx=0;entryDy=0;entryPerimeter=0;exitX=0.5;exitY=1;exitDx=0;exitDy=0;" edge="1" parent="1" source="ztK6fYnErQ94AF5k2fzQ-383" target="ztK6fYnErQ94AF5k2fzQ-423">
          <mxGeometry relative="1" as="geometry">
            <mxPoint x="135.25450827858663" y="7303.381724964488" as="targetPoint" />
            <Array as="points">
              <mxPoint x="776" y="7402" />
              <mxPoint x="973" y="7402" />
              <mxPoint x="973" y="7301" />
              <mxPoint x="131" y="7301" />
            </Array>
          </mxGeometry>
        </mxCell>
        <mxCell id="ztK6fYnErQ94AF5k2fzQ-446" style="edgeStyle=orthogonalEdgeStyle;rounded=0;orthogonalLoop=1;jettySize=auto;html=1;entryX=0.5;entryY=1;entryDx=0;entryDy=0;fontSize=12;startSize=8;endSize=8;exitX=0.5;exitY=1;exitDx=0;exitDy=0;" edge="1" parent="1" source="ztK6fYnErQ94AF5k2fzQ-380" target="ztK6fYnErQ94AF5k2fzQ-393">
          <mxGeometry relative="1" as="geometry">
            <Array as="points">
              <mxPoint x="416" y="7419" />
              <mxPoint x="988" y="7419" />
              <mxPoint x="988" y="7649" />
              <mxPoint x="176" y="7649" />
            </Array>
          </mxGeometry>
        </mxCell>
        <mxCell id="ztK6fYnErQ94AF5k2fzQ-447" style="edgeStyle=orthogonalEdgeStyle;rounded=0;orthogonalLoop=1;jettySize=auto;html=1;fontSize=12;startSize=8;endSize=8;exitX=0.5;exitY=1;exitDx=0;exitDy=0;entryX=0.166;entryY=1.004;entryDx=0;entryDy=0;entryPerimeter=0;" edge="1" parent="1" source="ztK6fYnErQ94AF5k2fzQ-403" target="ztK6fYnErQ94AF5k2fzQ-393">
          <mxGeometry relative="1" as="geometry">
            <mxPoint x="117" y="7634" as="targetPoint" />
            <Array as="points">
              <mxPoint x="301" y="7801" />
              <mxPoint x="619" y="7801" />
              <mxPoint x="619" y="7678" />
              <mxPoint x="136" y="7678" />
            </Array>
          </mxGeometry>
        </mxCell>
        <mxCell id="ztK6fYnErQ94AF5k2fzQ-448" style="edgeStyle=orthogonalEdgeStyle;rounded=0;orthogonalLoop=1;jettySize=auto;html=1;entryX=0.5;entryY=1;entryDx=0;entryDy=0;fontSize=12;startSize=8;endSize=8;exitX=0.5;exitY=1;exitDx=0;exitDy=0;" edge="1" parent="1" source="ztK6fYnErQ94AF5k2fzQ-413" target="ztK6fYnErQ94AF5k2fzQ-394">
          <mxGeometry relative="1" as="geometry">
            <Array as="points">
              <mxPoint x="179" y="7999" />
              <mxPoint x="658" y="7999" />
              <mxPoint x="658" y="7631" />
              <mxPoint x="296" y="7631" />
            </Array>
          </mxGeometry>
        </mxCell>
        <mxCell id="ztK6fYnErQ94AF5k2fzQ-449" style="edgeStyle=orthogonalEdgeStyle;rounded=0;orthogonalLoop=1;jettySize=auto;html=1;entryX=0.5;entryY=1;entryDx=0;entryDy=0;fontSize=12;startSize=8;endSize=8;exitX=0.5;exitY=1;exitDx=0;exitDy=0;" edge="1" parent="1" source="ztK6fYnErQ94AF5k2fzQ-460" target="ztK6fYnErQ94AF5k2fzQ-427">
          <mxGeometry relative="1" as="geometry">
            <Array as="points">
              <mxPoint x="299" y="8229" />
              <mxPoint x="392" y="8229" />
              <mxPoint x="392" y="8115" />
              <mxPoint x="181" y="8115" />
            </Array>
          </mxGeometry>
        </mxCell>
        <mxCell id="ztK6fYnErQ94AF5k2fzQ-450" value="" style="group" connectable="0" vertex="1" parent="1">
          <mxGeometry x="118" y="8530" width="600" height="85" as="geometry" />
        </mxCell>
        <mxCell id="ztK6fYnErQ94AF5k2fzQ-451" value="&lt;u&gt;Product_ID&lt;/u&gt;" style="rounded=0;whiteSpace=wrap;html=1;" vertex="1" parent="ztK6fYnErQ94AF5k2fzQ-450">
          <mxGeometry y="25" width="120" height="60" as="geometry" />
        </mxCell>
        <mxCell id="ztK6fYnErQ94AF5k2fzQ-452" value="&lt;u&gt;Retailer_ID&lt;/u&gt;" style="rounded=0;whiteSpace=wrap;html=1;" vertex="1" parent="ztK6fYnErQ94AF5k2fzQ-450">
          <mxGeometry x="120" y="25" width="120" height="60" as="geometry" />
        </mxCell>
        <mxCell id="ztK6fYnErQ94AF5k2fzQ-453" value="Price" style="rounded=0;whiteSpace=wrap;html=1;" vertex="1" parent="ztK6fYnErQ94AF5k2fzQ-450">
          <mxGeometry x="240" y="25" width="120" height="60" as="geometry" />
        </mxCell>
        <mxCell id="ztK6fYnErQ94AF5k2fzQ-454" value="Last_Updated" style="rounded=0;whiteSpace=wrap;html=1;" vertex="1" parent="ztK6fYnErQ94AF5k2fzQ-450">
          <mxGeometry x="360" y="25" width="120" height="60" as="geometry" />
        </mxCell>
        <mxCell id="ztK6fYnErQ94AF5k2fzQ-455" value="Stock_Status" style="rounded=0;whiteSpace=wrap;html=1;" vertex="1" parent="ztK6fYnErQ94AF5k2fzQ-450">
          <mxGeometry x="480" y="25" width="120" height="60" as="geometry" />
        </mxCell>
        <mxCell id="ztK6fYnErQ94AF5k2fzQ-456" value="&lt;span style=&quot;font-size: 17px;&quot;&gt;&lt;b&gt;Sells&lt;/b&gt;&lt;/span&gt;" style="text;html=1;align=left;verticalAlign=middle;whiteSpace=wrap;rounded=0;" vertex="1" parent="ztK6fYnErQ94AF5k2fzQ-450">
          <mxGeometry width="110" height="21" as="geometry" />
        </mxCell>
        <mxCell id="ztK6fYnErQ94AF5k2fzQ-457" style="edgeStyle=orthogonalEdgeStyle;rounded=0;orthogonalLoop=1;jettySize=auto;html=1;entryX=0.75;entryY=1;entryDx=0;entryDy=0;fontSize=12;startSize=8;endSize=8;exitX=0.5;exitY=1;exitDx=0;exitDy=0;" edge="1" parent="1" source="ztK6fYnErQ94AF5k2fzQ-451" target="ztK6fYnErQ94AF5k2fzQ-393">
          <mxGeometry relative="1" as="geometry">
            <Array as="points">
              <mxPoint x="178" y="8652" />
              <mxPoint x="836" y="8652" />
              <mxPoint x="836" y="7641" />
              <mxPoint x="206" y="7641" />
            </Array>
          </mxGeometry>
        </mxCell>
        <mxCell id="ztK6fYnErQ94AF5k2fzQ-458" style="edgeStyle=orthogonalEdgeStyle;rounded=0;orthogonalLoop=1;jettySize=auto;html=1;entryX=0.5;entryY=1;entryDx=0;entryDy=0;fontSize=12;startSize=8;endSize=8;" edge="1" parent="1" source="ztK6fYnErQ94AF5k2fzQ-452" target="ztK6fYnErQ94AF5k2fzQ-387">
          <mxGeometry relative="1" as="geometry">
            <Array as="points">
              <mxPoint x="298" y="8635" />
              <mxPoint x="971" y="8635" />
              <mxPoint x="971" y="7525" />
              <mxPoint x="176" y="7525" />
            </Array>
          </mxGeometry>
        </mxCell>
        <mxCell id="ztK6fYnErQ94AF5k2fzQ-459" value="Is_Memeber" style="rounded=0;whiteSpace=wrap;html=1;" vertex="1" parent="1">
          <mxGeometry x="239" y="8276" width="120" height="60" as="geometry" />
        </mxCell>
        <mxCell id="ztK6fYnErQ94AF5k2fzQ-460" value="Privilege_ID" style="rounded=0;whiteSpace=wrap;html=1;" vertex="1" parent="1">
          <mxGeometry x="239" y="8159" width="120" height="60" as="geometry" />
        </mxCell>
        <mxCell id="ztK6fYnErQ94AF5k2fzQ-461" style="edgeStyle=orthogonalEdgeStyle;rounded=0;orthogonalLoop=1;jettySize=auto;html=1;fontSize=12;startSize=8;endSize=8;exitX=0.5;exitY=1;exitDx=0;exitDy=0;entryX=0.5;entryY=1;entryDx=0;entryDy=0;" edge="1" parent="1" source="ztK6fYnErQ94AF5k2fzQ-435" target="ztK6fYnErQ94AF5k2fzQ-423">
          <mxGeometry relative="1" as="geometry">
            <mxPoint x="174" y="7269" as="targetPoint" />
            <Array as="points">
              <mxPoint x="179" y="8356" />
              <mxPoint x="1081" y="8356" />
              <mxPoint x="1081" y="7293" />
              <mxPoint x="174" y="7293" />
            </Array>
          </mxGeometry>
        </mxCell>
        <mxCell id="ztK6fYnErQ94AF5k2fzQ-462" style="edgeStyle=orthogonalEdgeStyle;rounded=0;orthogonalLoop=1;jettySize=auto;html=1;entryX=0.75;entryY=1;entryDx=0;entryDy=0;fontSize=12;startSize=8;endSize=8;" edge="1" parent="1" source="ztK6fYnErQ94AF5k2fzQ-432" target="ztK6fYnErQ94AF5k2fzQ-423">
          <mxGeometry relative="1" as="geometry">
            <Array as="points">
              <mxPoint x="179" y="8240" />
              <mxPoint x="1093" y="8240" />
              <mxPoint x="1093" y="7289" />
              <mxPoint x="204" y="7289" />
            </Array>
          </mxGeometry>
        </mxCell>
      </root>
    </mxGraphModel>
  </diagram>
</mxfile>
